<svg xmlns="http://www.w3.org/2000/svg" width="1440" height="1440" viewBox="0 0 1440 1440"><path fill="#080704" fill-rule="evenodd" d="M685.5 48.067c-8.8.419-24.753 1.725-35.452 2.901-10.699 1.176-25.099 3.007-32 4.068-6.901 1.062-17.449 2.833-23.439 3.937-5.989 1.104-17.889 3.633-26.443 5.62-8.553 1.987-20.303 4.937-26.109 6.556-5.806 1.618-16.407 4.781-23.557 7.029-7.15 2.248-18.85 6.205-26 8.795-7.15 2.589-20.875 7.974-30.5 11.967-9.625 3.992-26.95 11.909-38.5 17.593-11.55 5.684-27.75 14.215-36 18.958-8.25 4.742-21.075 12.519-28.5 17.282-7.425 4.762-20.25 13.45-28.5 19.306-8.25 5.856-19.95 14.594-26 19.417-6.05 4.824-17.075 13.986-24.5 20.362-7.425 6.375-22.754 20.828-34.064 32.117-11.31 11.289-25.035 25.7-30.5 32.025-5.466 6.325-12.002 13.975-14.526 17-2.524 3.025-8.392 10.45-13.04 16.5-4.648 6.05-12.278 16.4-16.956 23-4.679 6.6-11.144 16.05-14.367 21a849.108 849.108 0 0 0-11.34 18c-3.013 4.95-8.393 14.175-11.955 20.5-3.562 6.325-10.89 20.5-16.283 31.5-5.393 11-12.36 26.075-15.482 33.5-3.121 7.425-8.047 19.8-10.947 27.5-2.9 7.7-7.359 20.39-9.91 28.2-2.551 7.811-6.692 21.761-9.202 31-2.51 9.24-6.084 23.775-7.943 32.3-1.858 8.525-4.286 20.9-5.395 27.5-1.109 6.6-2.694 16.725-3.523 22.5-.829 5.775-2.176 17.025-2.994 25-.817 7.975-2.017 23.725-2.666 35-.722 12.53-.946 31.191-.576 48 .332 15.125 1.305 34.925 2.161 44 .856 9.075 2.228 21.9 3.049 28.5.821 6.6 2.637 18.75 4.035 27 1.399 8.25 3.681 20.4 5.072 27 1.391 6.6 4.491 19.689 6.889 29.086 2.398 9.397 7.358 26.272 11.021 37.5 3.664 11.228 9.48 27.614 12.925 36.414 3.445 8.8 9.05 22.3 12.457 30 3.407 7.7 11.032 23.455 16.945 35.011 5.913 11.556 14.949 27.981 20.08 36.5 5.131 8.519 14.054 22.464 19.829 30.989 5.774 8.525 14.966 21.43 20.425 28.677 5.46 7.247 13.99 18.047 18.957 24 4.966 5.953 14.107 16.448 20.313 23.323 6.207 6.875 19.098 20.15 28.648 29.5 9.55 9.35 22.088 21.087 27.863 26.081 5.775 4.995 16.54 13.922 23.922 19.839 7.382 5.917 19.307 14.92 26.5 20.008 7.193 5.088 17.128 11.947 22.078 15.243 4.95 3.295 14.261 9.2 20.691 13.123 6.431 3.922 18.584 10.861 27.007 15.419 8.423 4.558 22.512 11.753 31.308 15.989 8.797 4.235 23.194 10.691 31.994 14.346 8.8 3.655 20.95 8.443 27 10.64 6.05 2.197 14.15 5.047 18 6.333 3.85 1.287 12.175 3.926 18.5 5.866 6.325 1.94 16.45 4.858 22.5 6.486 6.05 1.628 18.2 4.537 27 6.466 8.8 1.929 24.325 4.879 34.5 6.556 10.175 1.676 26.6 3.945 36.5 5.042 9.9 1.097 26.037 2.46 35.861 3.029 9.823.569 27.211 1.034 38.639 1.034 11.428 0 28.816-.465 38.639-1.034 9.824-.569 25.961-1.933 35.861-3.031 9.9-1.098 26.325-3.36 36.5-5.027 10.175-1.666 25.7-4.614 34.5-6.552 8.8-1.938 20.95-4.855 27-6.483 6.05-1.628 16.175-4.546 22.5-6.486 6.325-1.94 14.65-4.579 18.5-5.866 3.85-1.286 11.95-4.146 18-6.356 6.05-2.209 16.4-6.245 23-8.969 6.6-2.723 15.632-6.53 20.072-8.459 4.44-1.93 16.59-7.772 27-12.982 10.41-5.211 25.003-12.968 32.428-17.238 7.425-4.27 19.25-11.42 26.278-15.89 7.028-4.47 18.503-12.13 25.5-17.023 6.997-4.892 18.572-13.435 25.722-18.984 7.15-5.548 19.3-15.484 27-22.078 7.7-6.595 21.813-19.652 31.363-29.016 9.55-9.365 22.441-22.651 28.648-29.526 6.206-6.875 15.414-17.45 20.462-23.5 5.047-6.05 13.639-16.933 19.093-24.185 5.453-7.252 15.062-20.839 21.353-30.194 6.291-9.355 13.791-20.972 16.667-25.815a1517.102 1517.102 0 0 0 11-18.924c3.174-5.565 9.798-18.165 14.72-28 4.921-9.835 12.327-25.757 16.457-35.382 4.129-9.625 9.757-23.575 12.505-31 2.749-7.425 7.123-20.025 9.72-28 2.597-7.975 6.883-22.399 9.524-32.054 2.641-9.655 6.441-25.542 8.445-35.304 2.003-9.761 4.498-23.012 5.543-29.445 1.046-6.433 2.806-18.897 3.913-27.697 1.107-8.8 2.581-22.75 3.275-31 .71-8.443 1.268-30.737 1.276-51 .008-20.966-.522-42.264-1.27-51-.706-8.25-2.172-22.425-3.258-31.5-1.087-9.075-3.339-24.375-5.004-34-1.666-9.625-4.576-24.329-6.468-32.675-1.891-8.346-5.059-21.171-7.039-28.5-1.98-7.329-6.656-22.55-10.39-33.825-3.733-11.275-9.496-27.25-12.806-35.5-3.309-8.25-8.168-19.95-10.796-26-2.628-6.05-9.798-20.9-15.933-33-6.135-12.1-15.344-28.975-20.464-37.5-5.12-8.525-13.779-22.206-19.242-30.402-5.463-8.196-14.397-20.876-19.854-28.178-5.456-7.301-14.714-19.045-20.572-26.098-5.859-7.052-14.07-16.647-18.247-21.322-4.177-4.675-13.451-14.517-20.608-21.872-7.157-7.354-19.782-19.504-28.055-27-8.273-7.495-19.748-17.485-25.5-22.198-5.752-4.714-14.283-11.494-18.958-15.067-4.675-3.573-13.9-10.319-20.5-14.99-6.6-4.672-17.85-12.239-25-16.815-7.15-4.576-19.975-12.342-28.5-17.257-8.525-4.916-24.95-13.587-36.5-19.269-11.55-5.683-29.323-13.784-39.496-18.001-10.173-4.218-26.148-10.373-35.5-13.678-9.352-3.305-25.329-8.405-35.504-11.333-10.175-2.929-25.524-6.948-34.109-8.932-8.586-1.984-20.511-4.511-26.5-5.615-5.99-1.104-16.516-2.872-23.391-3.929s-20.941-2.853-31.257-3.991c-10.317-1.138-28.092-2.506-39.5-3.039-11.409-.534-27.718-.911-36.243-.84-8.525.072-22.7.474-31.5.893m-.5 51.019c-6.875.439-17.45 1.295-23.5 1.902-6.05.607-19.325 2.247-29.5 3.644-10.175 1.397-26.15 4.105-35.5 6.019-9.35 1.914-23.075 5.057-30.5 6.984-7.425 1.928-19.435 5.291-26.689 7.473-7.253 2.182-18.053 5.713-24 7.846-5.946 2.133-14.904 5.449-19.907 7.37-5.002 1.921-14.002 5.625-20 8.23-5.997 2.605-16.767 7.518-23.933 10.917-7.165 3.399-19 9.427-26.298 13.397-7.299 3.97-17.861 9.954-23.472 13.296-5.611 3.343-16.925 10.565-25.143 16.048-8.218 5.484-20.368 14.054-27 19.044-6.632 4.991-16.608 12.799-22.17 17.352-5.561 4.553-15.011 12.683-21 18.068-5.988 5.385-15.328 14.074-20.755 19.308-5.426 5.234-15.577 15.816-22.558 23.516-6.98 7.7-16.288 18.275-20.684 23.5-4.397 5.225-10.913 13.325-14.481 18-3.569 4.675-10.308 13.9-14.978 20.5-4.669 6.6-11.472 16.55-15.118 22.112-3.646 5.561-9.784 15.534-13.642 22.162-3.857 6.627-10.399 18.502-14.536 26.388-4.138 7.886-10.408 20.638-13.932 28.338-3.525 7.7-8.784 19.85-11.687 27-2.904 7.15-7.26 18.625-9.681 25.5-2.421 6.875-6.387 19.025-8.813 27-2.426 7.975-5.788 19.944-7.471 26.598-1.682 6.653-4.64 19.928-6.573 29.5-1.933 9.571-4.384 23.477-5.446 30.902-1.062 7.425-2.4 17.55-2.974 22.5-.573 4.95-1.591 14.85-2.261 22-.693 7.384-1.218 28.337-1.216 48.5.002 20.89.525 41.056 1.272 49 .697 7.425 2.131 20.475 3.186 29 1.055 8.525 2.36 18.426 2.9 22.003.54 3.576 2.366 13.476 4.058 22 1.692 8.523 4.658 21.797 6.591 29.497 1.933 7.7 5.516 20.594 7.963 28.654 2.447 8.06 6.068 19.31 8.047 25 1.979 5.69 5.18 14.396 7.112 19.346 1.932 4.95 6.252 15.3 9.599 23 3.347 7.7 10.48 22.808 15.85 33.573 5.371 10.765 14.336 27.19 19.924 36.5 5.587 9.31 14.452 23.227 19.7 30.927 5.247 7.7 12.923 18.5 17.056 24 4.133 5.5 11.368 14.725 16.078 20.5 4.709 5.775 12.154 14.55 16.544 19.5 4.389 4.95 13.619 14.801 20.51 21.891 6.89 7.089 19.503 19.208 28.028 26.929 8.525 7.722 21.8 19.059 29.5 25.193 7.7 6.135 18.275 14.241 23.5 18.013 5.225 3.772 16.475 11.436 25 17.031 8.525 5.595 21.546 13.648 28.935 17.895 7.39 4.248 21.492 11.756 31.339 16.685 9.847 4.93 25.627 12.258 35.065 16.286 9.439 4.028 23.686 9.655 31.661 12.504 7.975 2.85 16.3 5.802 18.5 6.56 2.2.758 8.5 2.728 14 4.379 5.5 1.65 16.075 4.585 23.5 6.521 7.425 1.936 20.025 4.861 28 6.501 7.975 1.639 20.125 3.893 27 5.007 6.875 1.115 17.9 2.709 24.5 3.543 6.6.834 21.225 2.201 32.5 3.038 11.275.836 31.075 1.521 44 1.521s32.725-.683 44-1.518c11.275-.834 27.475-2.432 36-3.551 8.525-1.118 20.675-2.932 27-4.03 6.325-1.098 16-2.915 21.5-4.038 5.5-1.123 16.975-3.822 25.5-5.998 8.525-2.175 20-5.315 25.5-6.976 5.5-1.662 11.8-3.641 14-4.399 2.2-.758 10.525-3.71 18.5-6.56 7.975-2.849 22.341-8.527 31.924-12.617 9.584-4.09 25.334-11.401 35-16.246 9.667-4.846 23.651-12.297 31.076-16.557 7.425-4.26 21.825-13.254 32-19.987 10.175-6.732 24.35-16.656 31.5-22.053 7.15-5.397 16.825-12.987 21.5-16.867 4.675-3.88 13.225-11.297 19-16.483 5.775-5.187 16.27-15.097 23.323-22.023 7.052-6.927 17.873-18.219 24.045-25.094 6.173-6.875 14.611-16.55 18.753-21.5 4.142-4.95 11.589-14.4 16.551-21 4.961-6.6 13.305-18.3 18.543-26 5.237-7.7 11.995-18.05 15.018-23 3.023-4.95 8.202-13.725 11.509-19.5 3.306-5.775 9.174-16.82 13.039-24.545 3.865-7.725 9.365-19.2 12.223-25.5 2.857-6.3 7.913-18.205 11.235-26.455 3.322-8.25 9.158-24.45 12.97-36 3.811-11.55 8.905-28.887 11.319-38.527 2.413-9.64 5.742-24.265 7.396-32.5s4.128-22.848 5.497-32.473c1.37-9.625 3.271-25.375 4.225-35 1.306-13.182 1.732-26.753 1.725-55-.007-27.886-.445-41.859-1.708-54.5-.934-9.35-2.392-22.175-3.238-28.5-.847-6.325-2.421-16.675-3.498-23-1.078-6.325-2.649-14.875-3.492-19s-3.096-14.025-5.006-22c-1.911-7.975-5.709-21.971-8.442-31.103-2.732-9.132-6.991-22.306-9.464-29.277-2.473-6.971-6.56-17.725-9.084-23.897a1043.325 1043.325 0 0 0-9.451-22.231c-2.676-6.054-7.58-16.508-10.899-23.229-3.319-6.722-9.494-18.419-13.722-25.993-4.228-7.573-10.633-18.495-14.232-24.27-3.599-5.775-9.458-14.775-13.021-20-3.563-5.225-10.063-14.45-14.445-20.5-4.382-6.05-12.662-16.748-18.4-23.774-5.739-7.025-16.638-19.625-24.221-28-7.582-8.374-18.458-19.73-24.167-25.236-5.71-5.505-14.881-14.061-20.381-19.013-5.5-4.952-14.725-12.861-20.5-17.575-5.775-4.715-15.935-12.662-22.577-17.66-6.643-4.999-19.468-14.011-28.5-20.026-9.033-6.015-22.498-14.463-29.923-18.775-7.425-4.311-21.6-11.941-31.5-16.957-9.9-5.015-24.34-11.888-32.09-15.273-7.749-3.385-18.324-7.78-23.5-9.767-5.175-1.987-14.275-5.357-20.221-7.49-5.947-2.133-16.747-5.664-24-7.846-7.254-2.182-19.264-5.543-26.689-7.468-7.425-1.925-20.025-4.847-28-6.495-7.975-1.647-18.775-3.692-24-4.543-5.225-.852-13.136-2.022-17.58-2.6a1625.516 1625.516 0 0 0-16.5-2.039c-4.631-.543-17.87-1.651-29.42-2.461-11.55-.81-30.45-1.415-42-1.344-11.55.071-26.625.489-33.5.928M669 115.6c-8.525.751-22.475 2.305-31 3.454-8.525 1.149-24.414 3.851-35.308 6.005-10.895 2.153-26.736 5.714-35.202 7.912-8.467 2.198-24.753 7.104-36.192 10.901-11.439 3.798-26.423 9.161-33.298 11.918-6.875 2.757-16.55 6.802-21.5 8.989a1008.432 1008.432 0 0 0-18.5 8.454c-5.225 2.463-15.575 7.753-23 11.756-7.425 4.004-19.125 10.655-26 14.78s-17.9 11.111-24.5 15.523c-6.6 4.413-17.175 11.849-23.5 16.526-6.325 4.677-14.875 11.219-19 14.539-4.125 3.32-12.675 10.514-19 15.987-6.325 5.474-20.508 18.998-31.518 30.054-11.01 11.056-25.421 26.402-32.025 34.102-6.604 7.7-17.224 20.975-23.601 29.5-6.376 8.525-15.63 21.575-20.564 29-4.933 7.425-12.604 19.623-17.047 27.108-4.442 7.484-11.87 20.984-16.505 30-4.636 9.015-11.392 23.142-15.014 31.392s-8.011 18.6-9.753 23c-1.741 4.4-5.111 13.4-7.489 20-2.377 6.6-6.361 18.525-8.852 26.5-2.491 7.975-6.098 20.8-8.016 28.5-1.917 7.7-4.623 19.625-6.012 26.5-1.389 6.875-3.209 16.55-4.045 21.5-.835 4.95-2.391 15.975-3.457 24.5-1.066 8.525-2.518 22.7-3.227 31.5-.709 8.8-1.289 28.825-1.289 44.5s.573 35.7 1.274 44.5c.701 8.8 2.141 22.975 3.201 31.5 1.06 8.525 3.07 22.025 4.466 30 1.397 7.975 3.692 19.675 5.102 26 1.409 6.325 4.355 18.25 6.547 26.5 2.191 8.25 6.644 22.97 9.895 32.71 3.251 9.741 8.168 23.371 10.929 30.289 2.76 6.919 7.743 18.749 11.074 26.29 3.33 7.541 10.07 21.486 14.977 30.989 4.907 9.502 13.037 24.127 18.066 32.5 5.03 8.372 13.609 21.79 19.066 29.819 5.457 8.028 15.186 21.36 21.619 29.628 6.434 8.268 17.175 21.274 23.869 28.904 6.694 7.629 19.969 21.591 29.5 31.027 9.531 9.436 21.604 20.915 26.829 25.51 5.225 4.595 15.125 12.866 22 18.38 6.875 5.514 16.55 12.969 21.5 16.567 4.95 3.598 14.4 10.144 21 14.547 6.6 4.403 18.3 11.759 26 16.348 7.7 4.588 22.1 12.504 32 17.592 9.9 5.087 24.075 11.923 31.5 15.191 7.425 3.268 21.245 8.915 30.712 12.55 9.467 3.634 25.002 9.062 34.522 12.061 9.521 3 23.825 7.07 31.788 9.046 7.963 1.976 18.753 4.457 23.978 5.514 5.225 1.056 14.45 2.811 20.5 3.898 6.05 1.088 14.659 2.481 19.132 3.097 4.473.615 14.148 1.766 21.5 2.558 7.352.792 24.73 1.968 38.618 2.614 19.326.898 31.174.898 50.5 0 13.887-.646 31.266-1.822 38.618-2.614 7.352-.792 17.027-1.943 21.5-2.558 4.473-.616 13.082-2.009 19.132-3.097 6.05-1.087 15.275-2.842 20.5-3.898 5.225-1.057 16.015-3.538 23.978-5.514 7.963-1.976 22.267-6.046 31.788-9.046 9.52-2.999 25.055-8.427 34.522-12.061 9.467-3.635 23.125-9.22 30.351-12.412 7.227-3.192 19.152-8.808 26.5-12.481 7.349-3.672 20.111-10.518 28.361-15.212 8.25-4.695 22.2-13.252 31-19.016 8.8-5.764 21.175-14.321 27.5-19.017 6.325-4.695 15.775-12.001 21-16.234 5.225-4.234 14-11.617 19.5-16.407 5.5-4.791 16.925-15.54 25.389-23.886 8.463-8.347 19.493-19.702 24.51-25.235 5.016-5.532 13.429-15.207 18.694-21.5 5.265-6.292 13.763-17.066 18.884-23.941 5.122-6.875 12.773-17.675 17.004-24 4.23-6.325 11.63-17.984 16.444-25.909 4.814-7.925 12.956-22.55 18.093-32.5 5.137-9.95 12.125-24.391 15.528-32.091 3.403-7.7 8.619-20.216 11.592-27.812 2.972-7.597 7.64-20.523 10.374-28.724 2.734-8.201 6.52-20.435 8.414-27.187 1.895-6.752 4.366-16.102 5.492-20.777 1.126-4.675 3.392-15.25 5.035-23.5 1.643-8.25 3.697-19.725 4.565-25.5.868-5.775 2.211-15.9 2.983-22.5.773-6.6 1.942-18.975 2.599-27.5.656-8.525 1.193-28.325 1.193-44s-.537-35.475-1.193-44c-.657-8.525-1.824-20.9-2.594-27.5-.77-6.6-1.898-15.375-2.507-19.5-.608-4.125-2.687-15.6-4.62-25.5-1.932-9.9-5.316-25.198-7.519-33.996-2.204-8.798-6.421-23.423-9.372-32.5-2.951-9.077-6.927-20.779-8.836-26.004-1.908-5.225-6.391-16.475-9.961-25-3.57-8.525-8.932-20.675-11.916-27-2.983-6.325-8.941-18.025-13.239-26-4.298-7.975-10.53-19-13.849-24.5-3.319-5.5-10.064-16.075-14.989-23.5-4.926-7.425-12.798-18.675-17.494-25-4.696-6.325-11.995-15.775-16.22-21s-13.322-15.8-20.216-23.5c-6.893-7.7-19.224-20.552-27.401-28.56s-20.532-19.489-27.456-25.514c-6.923-6.025-19.117-15.992-27.096-22.149-7.98-6.157-22.115-16.327-31.412-22.601-9.297-6.273-23.428-15.219-31.403-19.881-7.975-4.661-21.025-11.84-29-15.954-7.975-4.114-20.575-10.219-28-13.567-7.425-3.348-19.35-8.427-26.5-11.285-7.15-2.859-22.225-8.277-33.5-12.04-11.275-3.764-27.561-8.672-36.192-10.909-8.63-2.236-24.605-5.828-35.5-7.981-10.894-2.154-26.783-4.85-35.308-5.992-8.525-1.142-23.375-2.746-33-3.566-11.661-.992-29.012-1.452-52-1.378-19.915.064-41.052.688-50 1.477m11 16.98c-10.175.733-24.125 2.039-31 2.901-6.875.863-19.25 2.709-27.5 4.102-8.25 1.394-20.85 3.842-28 5.44-7.15 1.599-16.6 3.845-21 4.991-4.4 1.146-14.075 3.922-21.5 6.168-7.425 2.245-19.575 6.215-27 8.821-7.425 2.607-19.8 7.31-27.5 10.452-7.7 3.142-22.1 9.643-32 14.447-9.9 4.804-24.975 12.698-33.5 17.542-8.525 4.845-19.775 11.558-25 14.919-5.225 3.36-14.675 9.696-21 14.079-6.325 4.383-17.31 12.489-24.41 18.014-7.101 5.524-17.897 14.319-23.993 19.544-6.095 5.225-18.01 16.25-26.477 24.5-8.467 8.25-20.846 21.101-27.508 28.558-6.661 7.457-16.434 18.932-21.717 25.5-5.283 6.568-12.664 16.188-16.404 21.377-3.739 5.19-10.263 14.64-14.498 21-4.234 6.361-11.222 17.415-15.529 24.565-4.307 7.15-12.611 22.45-18.453 34-5.843 11.55-11.818 23.7-13.278 27-1.461 3.3-4.417 10.275-6.569 15.5s-6.202 15.8-9 23.5c-2.798 7.7-7.146 20.75-9.663 29-2.517 8.25-6.329 22.2-8.472 31-2.142 8.8-5.026 21.85-6.407 29-1.382 7.15-3.429 19.3-4.549 27-1.12 7.7-2.792 21.425-3.714 30.5-1.235 12.142-1.686 26.273-1.707 53.5-.022 27.877.398 41.315 1.704 54.5.952 9.625 2.634 23.575 3.737 31 1.103 7.425 3.314 20.25 4.913 28.5 1.599 8.25 4.663 21.975 6.809 30.5 2.146 8.525 5.133 19.55 6.638 24.5 1.505 4.95 4.555 14.4 6.777 21 2.222 6.6 6.508 18.3 9.524 26 3.016 7.7 7.498 18.5 9.96 24 2.462 5.5 7.871 16.75 12.02 25 4.149 8.25 10.36 19.961 13.802 26.024 3.441 6.063 9.053 15.513 12.469 21 3.416 5.487 9.618 14.926 13.782 20.976 4.164 6.05 10.942 15.5 15.063 21 4.12 5.5 12.739 16.3 19.152 24 6.414 7.7 16.942 19.526 23.397 26.28 6.455 6.754 17.669 17.948 24.919 24.877 7.25 6.928 18.132 16.738 24.182 21.801 6.05 5.062 17.525 14.159 25.5 20.215 7.975 6.057 20.575 15.065 28 20.018 7.425 4.953 20.025 12.821 28 17.483 7.975 4.663 19 10.854 24.5 13.757 5.5 2.904 16.75 8.425 25 12.268s19.5 8.793 25 11.001 15.946 6.196 23.213 8.862c7.267 2.667 19.867 6.875 28 9.352 8.133 2.477 21.087 6.082 28.787 8.011 7.7 1.928 20.75 4.858 29 6.509 8.25 1.652 23.1 4.131 33 5.511 9.9 1.38 27.098 3.194 38.218 4.032 11.12.838 30.597 1.523 43.282 1.523 12.685 0 32.162-.685 43.282-1.523 11.12-.838 28.318-2.652 38.218-4.032 9.9-1.38 24.75-3.859 33-5.511 8.25-1.651 21.3-4.582 29-6.513 7.7-1.931 20.075-5.351 27.5-7.599 7.425-2.248 18.9-6.006 25.5-8.352 6.6-2.346 17.625-6.519 24.5-9.275 6.875-2.755 18.8-7.94 26.5-11.522 7.7-3.582 20.3-9.857 28-13.945 7.7-4.088 19.175-10.5 25.5-14.249 6.325-3.748 17.575-10.868 25-15.821 7.425-4.953 19.575-13.583 27-19.177 7.425-5.594 19.125-14.847 26-20.562 6.875-5.715 20.991-18.723 31.369-28.905 10.377-10.183 23.689-23.914 29.582-30.514 5.892-6.6 14.527-16.725 19.188-22.5 4.661-5.775 12.244-15.665 16.851-21.978 4.607-6.313 12.515-17.788 17.572-25.5 5.058-7.712 12.661-20.059 16.897-27.437 4.235-7.379 11.22-20.429 15.52-29 4.301-8.572 9.836-20.085 12.301-25.585s6.97-16.3 10.01-24c3.04-7.7 7.348-19.4 9.574-26 2.226-6.6 5.823-18.103 7.993-25.562 2.169-7.458 5.747-21.408 7.95-31 2.203-9.591 5.132-23.963 6.51-31.938 1.377-7.975 3.009-18.325 3.627-23 .618-4.675 1.558-13 2.089-18.5.53-5.5 1.469-17.65 2.086-27 .665-10.069.888-28.007.547-44-.317-14.85-1.281-34.2-2.142-43-.862-8.8-2.478-22.3-3.592-30-1.113-7.7-3.594-21.875-5.511-31.5-1.918-9.625-5.067-23.575-6.998-31-1.931-7.425-5.108-18.675-7.059-25-1.952-6.325-5.04-15.775-6.863-21-1.822-5.225-4.656-13.1-6.298-17.5-1.641-4.4-5.775-14.525-9.185-22.5-3.411-7.975-10.422-22.825-15.58-33-5.158-10.175-13.264-25.025-18.013-33-4.749-7.975-10.684-17.65-13.189-21.5-2.506-3.85-7.714-11.5-11.574-17-3.86-5.5-10.854-14.95-15.541-21-4.687-6.05-13.269-16.619-19.071-23.486-5.803-6.868-18.2-20.311-27.55-29.874-9.35-9.563-23.167-22.771-30.704-29.352-7.538-6.581-17.213-14.768-21.5-18.193-4.288-3.425-12.296-9.63-17.796-13.788-5.5-4.158-16.75-12.036-25-17.507-8.25-5.47-18.825-12.215-23.5-14.989-4.675-2.774-13.461-7.786-19.525-11.139-6.064-3.353-18.439-9.672-27.5-14.043-9.061-4.37-22.775-10.52-30.475-13.666-7.7-3.147-20.075-7.853-27.5-10.46-7.425-2.606-19.575-6.576-27-8.821-7.425-2.246-17.1-5.022-21.5-6.168-4.4-1.146-13.85-3.392-21-4.991-7.15-1.598-19.75-4.045-28-5.436-8.25-1.392-20.4-3.212-27-4.044-6.6-.833-21.675-2.192-33.5-3.02-11.825-.828-30.5-1.454-41.5-1.391-11 .063-28.325.715-38.5 1.448m16 23.032c-3.575.208-14.6 1.063-24.5 1.899-9.9.837-22.95 2.213-29 3.057-6.05.845-19.1 3.08-29 4.967-9.9 1.887-25.13 5.242-33.845 7.454-8.715 2.212-22.89 6.324-31.5 9.137-8.61 2.813-21.73 7.475-29.155 10.36-7.425 2.885-18.9 7.587-25.5 10.449-6.6 2.863-20.55 9.596-31 14.962-10.45 5.367-23.725 12.597-29.5 16.066-5.775 3.47-16.305 10.13-23.401 14.801-7.095 4.671-19.92 13.797-28.5 20.28-8.579 6.482-20.991 16.437-27.581 22.121-6.59 5.684-18.009 16.185-25.376 23.335-7.367 7.15-19.091 19.3-26.053 27-6.962 7.7-15.607 17.6-19.211 22-3.604 4.4-10.283 12.95-14.843 19-4.559 6.05-12.911 17.975-18.559 26.5-5.648 8.525-13.491 21.125-17.429 28-3.937 6.875-11.126 20.375-15.975 30s-10.942 22.411-13.54 28.414c-2.598 6.002-6.886 16.577-9.53 23.5-2.643 6.922-7.087 19.561-9.875 28.086-2.788 8.525-6.843 22.475-9.01 31-2.168 8.525-4.86 20-5.984 25.5-1.123 5.5-2.948 15.175-4.054 21.5-1.107 6.325-2.696 16.9-3.531 23.5-.836 6.6-2.197 21.675-3.025 33.5-.828 11.825-1.51 28.802-1.514 37.726-.005 8.925.679 26.25 1.52 38.5.84 12.251 2.409 28.731 3.485 36.622 1.076 7.892 3.331 21.842 5.013 31 1.681 9.159 5.113 24.735 7.627 34.615 2.513 9.88 6.943 25.18 9.842 34 2.9 8.82 7.087 20.762 9.304 26.537 2.218 5.775 6.269 15.675 9.004 22 2.735 6.325 7.279 16.345 10.097 22.266 2.819 5.922 8.892 17.622 13.496 26 4.604 8.379 10.739 19.059 13.634 23.734 2.895 4.675 8.411 13.225 12.258 19 3.847 5.775 11.347 16.35 16.666 23.5 5.32 7.15 14.368 18.625 20.107 25.5 5.739 6.875 19.211 21.445 29.937 32.379 10.725 10.933 25.836 25.333 33.579 32 7.743 6.666 20.343 16.878 28 22.693 7.657 5.814 18.872 13.962 24.922 18.106 6.05 4.145 16.625 10.912 23.5 15.04 6.875 4.127 18.535 10.78 25.911 14.785 7.375 4.004 20.448 10.533 29.049 14.509 8.602 3.976 22.142 9.821 30.09 12.99 7.947 3.169 22.325 8.366 31.95 11.55 9.625 3.183 24.475 7.576 33 9.762 8.525 2.186 20 4.901 25.5 6.032 5.5 1.132 13.825 2.759 18.5 3.615 4.675.857 13 2.207 18.5 3 5.5.793 18.1 2.238 28 3.21 13.319 1.307 26.972 1.767 52.5 1.767s39.181-.46 52.5-1.767c9.9-.972 22.5-2.417 28-3.21 5.5-.793 13.825-2.143 18.5-2.999 4.675-.857 14.927-2.913 22.781-4.571 7.855-1.657 21.355-4.98 30-7.384 8.646-2.405 21.569-6.387 28.719-8.85 7.15-2.463 19.525-7.06 27.5-10.215 7.975-3.155 21.988-9.2 31.14-13.432 9.152-4.232 23.777-11.652 32.5-16.488 8.723-4.837 21.71-12.451 28.86-16.919 7.15-4.469 18.175-11.822 24.5-16.342 6.325-4.519 16.362-11.998 22.305-16.62 5.943-4.621 16.534-13.38 23.536-19.465 7.002-6.084 21.498-19.975 32.213-30.869 10.715-10.894 24.155-25.432 29.867-32.307 5.712-6.875 14.309-17.693 19.104-24.04 4.796-6.347 12.308-16.922 16.696-23.5 4.387-6.578 10.216-15.56 12.954-19.96 2.737-4.4 7.542-12.589 10.678-18.197 3.135-5.608 9.025-16.858 13.088-25 4.064-8.142 9.177-18.872 11.362-23.845 2.186-4.973 5.792-13.523 8.013-19s6.056-15.583 8.521-22.458c2.465-6.875 6.5-19.475 8.965-28 2.466-8.525 5.656-20.475 7.088-26.556 1.432-6.081 3.699-16.656 5.038-23.5 1.34-6.844 3.127-16.944 3.972-22.444.845-5.5 2.526-19 3.736-30 1.838-16.716 2.204-25.829 2.234-55.5.026-26.899-.39-39.619-1.717-52.5-.964-9.35-2.657-23.3-3.763-31-1.105-7.7-3.364-20.75-5.018-29s-4.973-22.65-7.376-32c-2.402-9.35-7.032-24.875-10.289-34.5-3.257-9.625-8.784-24.7-12.283-33.5-3.499-8.8-11.621-26.575-18.05-39.5s-16.051-30.7-21.383-39.5c-5.332-8.8-13.101-20.95-17.266-27-4.165-6.05-12.176-17.075-17.803-24.5-5.626-7.425-14.847-18.9-20.49-25.5-5.643-6.6-19.074-20.798-29.846-31.551-10.772-10.754-25.269-24.389-32.215-30.301-6.946-5.912-18.871-15.498-26.5-21.303-7.629-5.804-20.846-15.173-29.371-20.818-8.525-5.645-21.125-13.496-28-17.447-6.875-3.95-19.925-10.932-29-15.515-9.075-4.584-21.9-10.68-28.5-13.548-6.6-2.868-18.3-7.594-26-10.502-7.7-2.909-20.402-7.37-28.227-9.914-7.824-2.545-21.324-6.428-30-8.63-8.675-2.203-23.873-5.549-33.773-7.436-9.9-1.887-22.95-4.12-29-4.963-6.05-.842-18.65-2.227-28-3.077-9.35-.851-28.7-1.707-43-1.904-14.3-.197-28.925-.187-32.5.021m-1 28.977c-3.575.196-12.125.841-19 1.433-6.875.592-17.675 1.731-24 2.53-6.325.799-14.425 1.938-18 2.532-3.575.593-12.125 2.206-19 3.583-6.875 1.377-17.9 3.846-24.5 5.485-6.6 1.64-18.075 4.809-25.5 7.042-7.425 2.234-19.484 6.247-26.797 8.919-7.313 2.672-19.013 7.296-26 10.274-6.987 2.979-17.203 7.566-22.703 10.193-5.5 2.628-16.975 8.585-25.5 13.237-8.525 4.653-20.9 11.87-27.5 16.037-6.6 4.167-16.5 10.707-22 14.534s-14.95 10.784-21 15.46c-6.05 4.675-15.725 12.557-21.5 17.513-5.775 4.957-17.407 15.791-25.849 24.076-8.442 8.284-19.941 20.238-25.553 26.563-5.611 6.325-14.072 16.3-18.802 22.166s-12.366 15.991-16.97 22.5c-4.605 6.509-11.567 16.784-15.471 22.834-3.905 6.05-10.336 16.625-14.291 23.5s-10.717 19.7-15.026 28.5c-4.309 8.8-10.35 21.983-13.423 29.295-3.074 7.312-7.849 19.594-10.612 27.294-2.763 7.7-7.005 20.842-9.427 29.205-2.422 8.363-5.541 19.931-6.932 25.706-1.39 5.775-3.902 17.845-5.582 26.822-1.68 8.977-3.747 21.802-4.593 28.5-.847 6.698-2.189 20.503-2.983 30.678s-1.444 27.725-1.444 39c0 11.275.638 28.854 1.417 39.064s1.909 22.585 2.51 27.5c.602 4.915 1.569 11.861 2.149 15.436.58 3.575 2.356 13.3 3.947 21.612 1.59 8.311 4.494 21.361 6.453 29 1.959 7.638 5.389 19.738 7.622 26.888 2.233 7.15 6.214 18.85 8.846 26 2.632 7.15 7.581 19.525 10.996 27.5 3.416 7.975 9.182 20.35 12.813 27.5 3.632 7.15 9.587 18.175 13.234 24.5 3.647 6.325 8.571 14.649 10.942 18.499 2.372 3.849 7.026 11.049 10.343 16 3.317 4.95 10.435 14.873 15.819 22.05 5.385 7.177 15.398 19.552 22.253 27.5 6.854 7.948 17.334 19.468 23.288 25.6 5.954 6.132 14.876 14.856 19.826 19.387 4.95 4.532 13.95 12.382 20 17.446 6.05 5.064 15.819 12.858 21.709 17.321 5.89 4.463 17.815 12.796 26.5 18.518 8.685 5.722 21.416 13.656 28.291 17.631 6.875 3.975 21.05 11.431 31.5 16.567 10.45 5.137 25.075 11.804 32.5 14.816 7.425 3.012 19.35 7.511 26.5 9.998 7.15 2.487 18.4 6.116 25 8.065 6.6 1.948 18.525 5.105 26.5 7.015 7.975 1.91 20.575 4.595 28 5.967 7.425 1.372 18.9 3.177 25.5 4.011 6.6.834 17.175 2.089 23.5 2.789 7.205.798 25.133 1.273 48 1.273s40.795-.475 48-1.273c6.325-.7 16.9-1.955 23.5-2.789 6.6-.834 18.075-2.639 25.5-4.011 7.425-1.372 19.93-4.036 27.789-5.92 7.86-1.883 19.11-4.826 25-6.54 5.891-1.714 15.436-4.695 21.211-6.625 5.775-1.93 17.925-6.412 27-9.961 9.075-3.548 26.4-11.346 38.5-17.329 12.1-5.982 29.316-15.293 38.257-20.691 8.942-5.398 22.892-14.404 31-20.015 8.109-5.61 20.605-14.887 27.77-20.615 7.164-5.729 17.964-14.829 24-20.223 6.035-5.394 16.768-15.692 23.851-22.884 7.083-7.192 17.907-18.927 24.054-26.077 6.147-7.15 14.319-17.05 18.159-22 3.841-4.95 9.723-12.825 13.072-17.5 3.349-4.675 9.435-13.675 13.525-20 4.091-6.325 10.084-16 13.319-21.5 3.235-5.5 9.992-18.1 15.015-28 5.024-9.9 12.183-25.2 15.909-34 3.726-8.8 9.849-25.225 13.607-36.5 3.757-11.275 8.395-26.575 10.306-34 1.911-7.425 4.636-18.9 6.055-25.5 1.419-6.6 3.457-17.4 4.529-24 1.073-6.6 2.645-18.075 3.493-25.5.848-7.425 1.999-19.8 2.557-27.5.558-7.7 1.014-23.225 1.014-34.5 0-11.275-.451-26.8-1.002-34.5-.551-7.7-1.471-18.05-2.043-23-.573-4.95-1.715-13.95-2.538-20-.823-6.05-2.639-16.85-4.037-24-1.397-7.15-3.658-17.725-5.025-23.5-1.366-5.775-4.239-16.602-6.383-24.061-2.145-7.458-5.527-18.258-7.517-24-1.989-5.741-6.522-17.778-10.072-26.749-3.551-8.97-9.986-23.595-14.3-32.5-4.314-8.904-12.093-23.615-17.288-32.69s-13.447-22.56-18.339-29.967c-4.891-7.407-13.129-19.107-18.305-26-5.177-6.893-13.739-17.702-19.028-24.02-5.288-6.318-17.715-19.756-27.615-29.861-9.9-10.106-24.903-24.279-33.339-31.496-8.437-7.218-20.362-16.898-26.5-21.513-6.139-4.615-14.536-10.693-18.661-13.506-4.125-2.813-12-7.999-17.5-11.524-5.5-3.526-16.525-10.077-24.5-14.558-7.975-4.482-20.35-10.986-27.5-14.455-7.15-3.469-18.716-8.742-25.703-11.718-6.987-2.976-18.687-7.597-26-10.269-7.313-2.672-19.372-6.685-26.797-8.919-7.425-2.233-18.9-5.404-25.5-7.047-6.6-1.642-16.725-3.952-22.5-5.132-5.775-1.18-14.1-2.764-18.5-3.52-4.4-.756-11.6-1.852-16-2.435-4.4-.584-14.75-1.748-23-2.588-8.25-.839-27.375-1.687-42.5-1.883-15.125-.196-30.425-.196-34 0m1 39.54c-9.075.457-24.15 1.723-33.5 2.813-9.35 1.089-23.3 3.134-31 4.543-7.7 1.409-20.525 4.142-28.5 6.072-7.975 1.93-19.675 5.108-26 7.063-6.325 1.954-15.1 4.827-19.5 6.383a811.243 811.243 0 0 0-15 5.499c-3.85 1.468-11.275 4.479-16.5 6.693-5.225 2.214-16.537 7.538-25.138 11.832-8.6 4.293-19.4 9.934-24 12.535-4.599 2.6-13.762 8.132-20.362 12.292-6.6 4.16-15.825 10.253-20.5 13.54-4.675 3.287-12.325 8.915-17 12.507-4.675 3.592-11.425 8.957-15 11.923-3.575 2.966-12.899 11.247-20.719 18.403-7.82 7.156-20.04 19.369-27.155 27.142-7.114 7.772-15.528 17.281-18.696 21.131-3.168 3.85-9.681 12.241-14.473 18.647-4.793 6.406-12.52 17.431-17.173 24.5-4.653 7.069-11.164 17.578-14.47 23.353-3.305 5.775-8.73 15.675-12.054 22-3.325 6.325-8.625 17.35-11.779 24.5-3.153 7.15-7.642 17.95-9.976 24-2.334 6.05-5.389 14.375-6.789 18.5-1.4 4.125-4.118 12.675-6.041 19-1.922 6.325-5.108 18.25-7.079 26.5s-4.732 21.75-6.136 30-3.466 23.775-4.583 34.5c-1.553 14.909-2.038 26.563-2.057 49.5-.018 20.579.493 35.339 1.628 47 .91 9.35 2.538 22.625 3.618 29.5 1.079 6.875 2.669 16.1 3.533 20.5.864 4.4 2.917 13.625 4.564 20.5 1.647 6.875 5.021 19.216 7.498 27.425 2.478 8.209 6.497 20.282 8.933 26.828 2.436 6.547 6.273 16.256 8.527 21.575 2.255 5.32 7.364 16.422 11.355 24.672 3.991 8.25 10.731 21.075 14.976 28.5 4.246 7.425 12.354 20.475 18.018 29 5.663 8.525 14.474 20.9 19.58 27.5 5.105 6.6 13.335 16.725 18.289 22.5 4.953 5.775 16.693 18.15 26.088 27.5 9.395 9.35 22.255 21.313 28.578 26.584 6.322 5.271 16.285 13.218 22.139 17.659 5.854 4.442 16.204 11.803 23 16.358 6.796 4.555 18.656 11.934 26.356 16.397 7.7 4.464 19.4 10.847 26 14.186 6.6 3.338 17.23 8.37 23.621 11.181 6.392 2.812 16.742 7.09 23 9.507 6.259 2.417 17.895 6.492 25.859 9.055 7.964 2.563 19.664 5.965 26 7.561 6.336 1.595 15.795 3.832 21.02 4.971 5.225 1.139 14.675 2.943 21 4.01 6.325 1.067 17.516 2.627 24.87 3.468 7.353.84 23.44 2.076 35.75 2.745 17.585.957 27.175.957 44.76 0 12.31-.669 28.397-1.905 35.75-2.745 7.354-.84 19.895-2.65 27.87-4.023 7.975-1.373 21.925-4.285 31-6.472 9.075-2.186 23.025-6.038 31-8.559 7.975-2.521 20.329-6.808 27.454-9.528 7.125-2.72 18.15-7.236 24.5-10.037 6.35-2.801 16.82-7.727 23.265-10.948 6.446-3.22 18.371-9.75 26.5-14.512 8.13-4.761 19.506-11.812 25.281-15.667 5.775-3.856 15.471-10.693 21.546-15.194 6.076-4.5 16.648-12.865 23.493-18.59 6.846-5.724 20.363-18.282 30.039-27.907 9.676-9.625 21.606-22.225 26.511-28 4.906-5.775 12.57-15.225 17.032-21 4.461-5.775 11.945-16.125 16.631-23 4.685-6.875 11.725-17.816 15.644-24.312 3.919-6.497 10.693-18.647 15.054-27 4.361-8.354 10.424-20.924 13.474-27.935 3.049-7.011 7.174-16.911 9.166-22 1.991-5.089 5.782-15.778 8.423-23.753s6.406-20.575 8.366-28c1.961-7.425 4.941-20.453 6.623-28.95 1.681-8.498 3.724-20.198 4.539-26 .815-5.803 2.225-17.975 3.134-27.05 1.091-10.899 1.662-26.005 1.682-44.5.017-15.4-.53-33.85-1.214-41-.685-7.15-1.929-18.4-2.765-25-.836-6.6-2.64-18.075-4.009-25.5-1.369-7.425-4.516-21.6-6.995-31.5-2.479-9.9-6.776-24.75-9.55-33-2.773-8.25-7.204-20.4-9.845-27-2.641-6.6-6.137-14.925-7.768-18.5a1480.355 1480.355 0 0 0-7.233-15.5c-2.347-4.95-7.731-15.3-11.965-23-4.234-7.7-10.581-18.515-14.105-24.033-3.525-5.518-10.325-15.643-15.112-22.5-4.787-6.857-11.738-16.292-15.448-20.967-3.709-4.675-11.261-13.675-16.781-20-5.521-6.325-15.669-17.128-22.552-24.007-6.883-6.879-17.69-17.048-24.015-22.597-6.325-5.55-16.9-14.262-23.5-19.361-6.6-5.099-19.65-14.35-29-20.558-9.35-6.208-21.5-13.866-27-17.018-5.5-3.152-17.425-9.452-26.5-14s-20.775-10.073-26-12.279c-5.225-2.205-12.65-5.21-16.5-6.678a811.243 811.243 0 0 0-15-5.499c-4.4-1.556-13.175-4.429-19.5-6.383-6.325-1.955-18.025-5.133-26-7.063-7.975-1.93-20.8-4.662-28.5-6.07-7.7-1.408-21.425-3.425-30.5-4.481s-25.929-2.39-37.454-2.963c-11.525-.574-23-.976-25.5-.895-2.5.082-11.971.523-21.046.981m-66.553 111.274c-2.229.698-6.879 2.776-10.334 4.617-3.766 2.008-8.271 5.577-11.251 8.914-2.734 3.061-6.329 8.321-7.99 11.688-1.662 3.367-3.517 9.33-4.124 13.25-.806 5.208-.804 9.06.007 14.299.673 4.348 2.498 9.981 4.638 14.31 2.379 4.814 5.484 9.005 9.53 12.865 3.453 3.292 8.673 6.968 12.289 8.653 3.459 1.61 9.552 3.43 13.542 4.042 5.133.789 9.193.812 13.89.081 3.65-.568 9.836-2.555 13.746-4.415 3.911-1.86 9.246-5.461 11.856-8.003 2.61-2.542 6.114-6.777 7.786-9.413 1.672-2.635 3.924-7.651 5.004-11.146 1.185-3.834 1.959-9.191 1.952-13.5-.006-3.93-.64-9.505-1.408-12.389-.768-2.884-2.395-7.309-3.617-9.833-1.222-2.523-4.706-7.271-7.742-10.551-3.037-3.28-7.495-7.12-9.907-8.534-2.412-1.413-7.11-3.418-10.439-4.454-4.081-1.27-8.874-1.862-14.714-1.817-4.764.037-10.485.638-12.714 1.336m123.053.001c-2.2.699-6.25 2.429-9 3.844-2.75 1.416-6.865 4.184-9.145 6.151-2.279 1.967-5.791 6.058-7.804 9.09s-4.528 8.036-5.588 11.12c-1.061 3.083-2.219 8.431-2.572 11.883-.442 4.306-.124 8.61 1.011 13.713.984 4.421 3.163 9.991 5.376 13.738 2.047 3.467 6.096 8.475 8.998 11.13 2.902 2.655 8.077 6.188 11.5 7.851 3.423 1.663 9.345 3.508 13.159 4.099 3.815.591 9.44.77 12.5.398 3.061-.373 8.04-1.589 11.065-2.704 3.025-1.114 6.625-2.728 8-3.585 1.375-.858 4.41-3.091 6.745-4.962 2.335-1.872 6.043-6.095 8.241-9.386 2.197-3.291 4.9-8.912 6.005-12.489 1.296-4.197 2.009-9.319 2.009-14.432 0-5.384-.668-9.908-2.082-14.106-1.145-3.4-3.176-8.047-4.513-10.329-1.337-2.282-5.026-6.624-8.197-9.648-3.171-3.025-7.289-6.288-9.15-7.25-1.861-.962-5.856-2.6-8.877-3.64-3.902-1.342-8.13-1.871-14.588-1.823-5.001.037-10.893.638-13.093 1.337M412.266 455.657c-2.565.908-5.763 3.237-8.117 5.911-2.136 2.426-4.413 6.329-5.061 8.672-.859 3.11-1.097 20.861-.882 65.76.294 61.5.294 61.5 3.174 67.734 1.782 3.859 4.747 7.982 7.782 10.821 2.697 2.523 7.026 5.567 9.621 6.766 4.662 2.153 5.437 2.182 66.146 2.459 61.429.279 61.429.279 66.683-2.291 3.673-1.797 6.162-3.942 8.275-7.132 1.661-2.508 3.303-6.442 3.648-8.741.345-2.298.478-12.752.296-23.23-.331-19.05-.331-19.05-3.346-23.924-2.194-3.545-4.473-5.635-8.365-7.668C546.772 548 546.772 548 511.445 548c-22.074 0-35.555-.369-35.935-.983-.334-.541-.576-16.179-.537-34.75.04-19.243-.372-36.133-.958-39.267-.566-3.025-2.266-7.3-3.778-9.5-1.731-2.518-4.759-5.019-8.173-6.75-5.4-2.738-5.508-2.75-25.493-2.671-15.12.059-21.115.449-24.305 1.578m204.67 1.093c-3.552 1.801-6.461 4.246-8.43 7.086-3.006 4.335-3.006 4.335-3.276 74.251-.26 67.372-.2 70.051 1.659 73.664 1.06 2.062 3.207 4.963 4.769 6.446 1.563 1.483 4.515 3.396 6.56 4.25 2.957 1.235 7.979 1.553 24.554 1.553 20.292 0 20.968-.066 25.919-2.533 3.014-1.502 6.156-4.081 7.719-6.337 1.45-2.092 3.076-5.337 3.613-7.21.591-2.062.977-29.224.977-68.797 0-47.227-.327-66.481-1.176-69.316-.647-2.159-2.898-5.882-5.003-8.273-2.513-2.855-5.432-4.895-8.502-5.941-3.653-1.245-8.972-1.593-24.318-1.593-19.447 0-19.696.027-25.065 2.75m125.812-1.323c-2.064.736-5.266 2.493-7.116 3.904-1.85 1.411-4.324 4.609-5.498 7.106-2.113 4.497-2.134 5.198-2.134 72.584 0 54.827.262 68.668 1.348 71.261.742 1.77 2.636 4.745 4.209 6.61 1.573 1.866 4.679 4.219 6.902 5.228 3.496 1.588 6.82 1.839 24.642 1.858 13.209.014 21.82-.399 24-1.15 1.869-.645 4.68-2.108 6.247-3.25 1.566-1.143 4.041-4.103 5.5-6.578 2.652-4.5 2.652-4.5 2.929-71.91.242-58.652.077-68.015-1.269-72.066-.87-2.618-3.179-6.249-5.277-8.297-2.052-2.003-5.7-4.336-8.107-5.184-3.378-1.191-8.733-1.533-23.5-1.499-13.342.031-20.258.449-22.876 1.383m111.289-.253c-1.905.547-4.725 1.892-6.266 2.989-1.54 1.097-3.469 3.287-4.286 4.866-.817 1.58-1.485 5.312-1.485 8.296 0 2.983.631 7.168 1.402 9.299.77 2.132 15.361 32.086 32.422 66.564 23.688 47.869 31.996 63.746 35.144 67.162 2.268 2.46 6.24 5.525 8.828 6.811 4.421 2.198 5.819 2.339 23.204 2.339 17.229 0 18.817-.156 23.12-2.276 2.542-1.253 6.528-4.178 8.859-6.5 3.141-3.13 6.641-9.144 13.515-23.224 5.102-10.45 19.236-38.983 31.408-63.406 12.173-24.423 22.844-46.854 23.714-49.846 1.041-3.579 1.354-6.963.915-9.887-.424-2.828-1.75-5.68-3.645-7.838-1.8-2.051-4.925-4.039-7.895-5.026-4.102-1.362-8.691-1.58-27.704-1.315-19.41.271-23.261.577-25.985 2.067-1.759.962-4.484 3.125-6.056 4.806-1.571 1.681-8.682 14.926-15.801 29.431-7.12 14.506-13.496 26.406-14.17 26.444-.674.039-7.199-11.935-14.5-26.609-8.847-17.779-14.473-27.9-16.866-30.341-2.334-2.38-5.203-4.068-8.193-4.821-2.823-.711-12.642-1.124-25.409-1.069-11.444.05-22.366.538-24.27 1.084M696 678.324a62811.396 62811.396 0 0 1-67 38.602c-22.275 12.816-41.159 23.926-41.964 24.688-1.249 1.182 19.929 1.386 143.627 1.386 117.124 0 145.298-.248 146.161-1.288.588-.708 10.78-18.128 22.648-38.711 11.869-20.582 21.358-38.003 21.085-38.712-.399-1.04-19.561-1.287-99.276-1.277l-98.781.012-26.5 15.3M535.639 786.239c-.782 1.243-7.545 12.892-15.03 25.885-7.485 12.993-13.609 24.19-13.609 24.881 0 .691 3.158 6.778 7.018 13.526 3.859 6.748 7.721 12.539 8.581 12.869.861.33 89.503.6 196.983.6s195.416.337 195.415.75c-.002.413-4.755 9.065-10.562 19.229-5.806 10.163-11.092 18.819-11.746 19.234-.654.416-96.407.763-212.784.772-200.274.014-211.675.109-213.085 1.765-.82.962-11.015 18.303-22.655 38.535C432.524 964.517 423 981.729 423 982.535c0 1.282 26.338 1.465 210.941 1.465 116.018 0 211.153.343 211.412.762.259.419-4.102 8.682-9.691 18.361s-10.78 18.337-11.534 19.238c-1.253 1.496-9.15 1.639-90.628 1.639-81.772 0-89.37-.139-90.628-1.652-.754-.909-3.184-4.842-5.398-8.742-2.214-3.899-4.689-7.209-5.5-7.356-.949-.172-3.663 3.569-7.614 10.492a5843.973 5843.973 0 0 1-15.413 26.758c-5.1 8.8-14.82 25.657-21.599 37.461-6.78 11.803-11.959 21.828-11.509 22.278.449.449 60.857.667 134.239.483 132.706-.333 133.465-.346 141.422-2.478 4.4-1.178 10.475-3.004 13.5-4.057 3.025-1.053 9.01-3.582 13.301-5.62 4.29-2.038 12.494-6.845 18.232-10.682 5.932-3.966 14.698-11.162 20.321-16.68 5.439-5.338 12.344-13.08 15.346-17.205 3.001-4.125 7.013-10.2 8.915-13.5 1.901-3.3 4.91-9.28 6.685-13.288 1.774-4.009 4.414-11.659 5.865-17 2.127-7.831 2.701-12.423 2.966-23.712.18-7.7.337-14.3.349-14.667.011-.366 3.732-3.253 8.27-6.414 4.538-3.161 12.992-10.511 18.787-16.333 6.489-6.52 13.107-14.452 17.229-20.649 3.68-5.535 8.235-13.41 10.122-17.5 1.888-4.09 4.335-10.137 5.439-13.437 1.104-3.3 2.719-9.469 3.59-13.708.886-4.313 1.583-12.594 1.583-18.802 0-6.43-.666-14.122-1.584-18.293-.872-3.958-3.61-11.418-6.086-16.576-3.703-7.717-5.947-10.838-12.665-17.61-6.769-6.824-9.79-9.024-17.665-12.865-5.225-2.549-12.2-5.424-15.5-6.39-5.626-1.647-19.255-1.772-218.72-2.017-212.719-.262-212.719-.262-214.141 2"/><path fill="#f5c704" fill-rule="evenodd" d="M681 9.101c-7.975.444-21.25 1.516-29.5 2.382-8.25.866-21.525 2.467-29.5 3.557-7.975 1.089-16.75 2.407-19.5 2.927-2.75.521-7.7 1.462-11 2.092-3.3.629-9.15 1.743-13 2.474-3.85.731-10.825 2.217-15.5 3.302a1092.13 1092.13 0 0 0-14.5 3.474c-3.3.825-8.587 2.219-11.75 3.096-3.163.877-8.112 2.233-11 3.012-2.888.779-12.225 3.654-20.75 6.388s-17.525 5.728-20 6.652c-2.475.924-5.85 2.061-7.5 2.527-1.65.465-7.725 2.718-13.5 5.004-5.775 2.287-11.625 4.523-13 4.969-1.375.446-6.325 2.486-11 4.534-4.675 2.048-13.675 6.184-20 9.19-6.325 3.006-13.525 6.485-16 7.731-2.475 1.245-9.341 4.81-15.257 7.922-5.917 3.111-13.342 7.083-16.5 8.825-3.159 1.742-10.693 6.096-16.743 9.676-6.05 3.581-14.15 8.509-18 10.954-3.85 2.444-9.7 6.265-13 8.491-3.3 2.227-10.394 7.237-15.764 11.134a2969.312 2969.312 0 0 0-20.552 15.086c-5.932 4.4-14.1 10.7-18.151 14-4.05 3.3-8.095 6.675-8.987 7.5-.892.825-7.005 6.202-13.584 11.948-6.579 5.747-20.31 18.797-30.514 29-10.203 10.204-23.253 23.935-29 30.514-5.746 6.579-11.123 12.692-11.948 13.584-.825.892-4.2 4.937-7.5 8.987-3.3 4.051-9.6 12.179-14 18.063-4.4 5.884-8.675 11.687-9.5 12.894-.825 1.208-2.531 3.392-3.791 4.853-1.26 1.461-7.847 10.982-14.637 21.157s-13.409 20.351-14.709 22.613c-1.3 2.262-5.15 9.012-8.557 15A2487.516 2487.516 0 0 0 94.056 381c-1.68 3.025-7.78 15.067-13.556 26.76-5.775 11.693-10.5 21.468-10.5 21.723 0 .254-1.095 2.837-2.434 5.74-1.339 2.902-4.264 9.642-6.5 14.976C58.83 455.533 57 460.506 57 461.249c0 .743-.408 1.778-.907 2.301-.499.522-1.363 2.525-1.921 4.45-.557 1.925-1.988 5.975-3.179 9-1.191 3.025-2.535 6.85-2.987 8.5-.451 1.65-2.604 8.4-4.783 15-2.179 6.6-4.645 14.25-5.481 17-.836 2.75-2.49 8.375-3.676 12.5a1538.932 1538.932 0 0 1-3.611 12.365c-.8 2.675-1.455 5.765-1.455 6.866 0 1.1-.664 4.086-1.476 6.635-.812 2.549-2.387 8.767-3.5 13.818S22 580.052 22 581.5c0 1.447-.42 3.416-.933 4.374-.512.958-1.364 4.641-1.893 8.184-.528 3.543-2.118 14.092-3.533 23.442s-3.253 23.75-4.084 32c-.832 8.25-1.972 23.325-2.534 33.5-.562 10.175-1.022 27.113-1.022 37.639-.001 10.527.458 27.177 1.02 37 .561 9.824 1.695 24.611 2.519 32.861.825 8.25 2.169 19.725 2.988 25.5.819 5.775 2.421 16.35 3.56 23.5 1.139 7.15 2.341 13.675 2.671 14.5.33.825 1.155 4.65 1.833 8.5.678 3.85 2.129 10.825 3.225 15.5 1.095 4.675 2.667 11.2 3.492 14.5a578.12 578.12 0 0 0 3.022 11.5 716.376 716.376 0 0 1 2.681 10c.637 2.475 1.528 5.4 1.979 6.5.452 1.1 3.138 9.425 5.971 18.5s5.759 18.075 6.504 20c.744 1.925 3.166 8.45 5.381 14.5 2.216 6.05 5.875 15.47 8.131 20.934 2.257 5.464 4.827 11.539 5.712 13.5.885 1.961 6.252 13.016 11.927 24.566 5.675 11.55 11.945 23.925 13.932 27.5 1.987 3.575 5.001 8.975 6.697 12 1.695 3.025 5.867 10.225 9.27 16 3.403 5.775 9.278 15.225 13.057 21s10.422 15.45 14.763 21.5c4.341 6.05 8.741 11.929 9.778 13.064 1.037 1.136 1.886 2.561 1.886 3.167 0 .606.338 1.252.75 1.436.413.183 2.069 2.133 3.681 4.333s6.307 8.275 10.433 13.5c4.127 5.225 10.45 12.875 14.053 17 3.602 4.125 8.357 9.481 10.566 11.902a4025.95 4025.95 0 0 0 11.493 12.5c4.112 4.454 11.55 12.148 16.528 17.098 4.979 4.95 12.215 11.925 16.082 15.5a838.096 838.096 0 0 0 13.884 12.5c3.77 3.3 7.857 6.9 9.083 8 1.225 1.1 3.564 3.185 5.197 4.633s8.77 7.204 15.86 12.791c7.089 5.587 13.644 10.702 14.565 11.367a408.92 408.92 0 0 0 3.814 2.709c1.176.825 6.722 4.803 12.325 8.841 5.602 4.037 15.136 10.619 21.186 14.628 6.05 4.008 15.275 9.879 20.5 13.047 5.225 3.168 13.1 7.787 17.5 10.265 4.4 2.477 19.25 10.205 33 17.173 13.75 6.968 30.85 15.179 38 18.246 7.15 3.068 15.7 6.586 19 7.818 3.3 1.231 8.25 3.111 11 4.175 2.75 1.065 10.85 3.893 18 6.285 7.15 2.391 18.175 5.936 24.5 7.877 6.325 1.94 14.875 4.467 19 5.614 4.125 1.147 9.075 2.603 11 3.235 1.925.632 5.3 1.508 7.5 1.945 2.2.437 8.05 1.752 13 2.922 4.95 1.17 11.925 2.718 15.5 3.44 3.575.723 12.8 2.475 20.5 3.893 7.7 1.419 23 3.689 34 5.046 11 1.357 26.075 2.954 33.5 3.55 7.425.595 25.875 1.351 41 1.679 16.49.358 36.308.125 49.5-.581 12.1-.648 28.525-1.841 36.5-2.652 7.975-.811 20.8-2.378 28.5-3.483 7.7-1.104 18.95-2.929 25-4.055 6.05-1.126 13.925-2.646 17.5-3.378 3.575-.733 10.55-2.288 15.5-3.456 4.95-1.168 11.454-2.583 14.453-3.144 2.998-.562 5.923-1.394 6.5-1.849.576-.456 3.174-1.136 5.774-1.513 2.599-.376 4.957-1.057 5.239-1.512.281-.456 2.204-1.137 4.273-1.514 2.069-.376 5.786-1.335 8.261-2.131 2.475-.796 13.275-4.338 24-7.871 10.725-3.534 21.525-7.129 24-7.99 2.475-.86 5.281-2.011 6.236-2.557.955-.546 2.237-.993 2.849-.993.612 0 2.531-.638 4.264-1.418 1.733-.779 9.543-4.152 17.355-7.494 7.812-3.342 19.962-8.931 27-12.42 7.038-3.489 18.196-9.173 24.796-12.631 6.6-3.459 14.025-7.431 16.5-8.827 2.475-1.397 9.45-5.464 15.5-9.039 6.05-3.574 17.525-10.774 25.5-16 7.975-5.226 18.162-12.24 22.638-15.586 4.476-3.347 9.147-6.76 10.381-7.585 1.233-.825 6.346-4.596 11.361-8.379 5.016-3.784 14.07-11.069 20.12-16.19 6.05-5.121 12.791-10.931 14.979-12.913 2.189-1.981 7.589-6.828 12-10.77 4.412-3.943 13.889-13.036 21.061-20.208 7.172-7.172 16.265-16.649 20.208-21.061 3.942-4.411 8.789-9.811 10.77-12 1.982-2.188 7.792-8.929 12.913-14.979 5.121-6.05 12.406-15.104 16.19-20.12 3.783-5.015 7.554-10.128 8.379-11.361.825-1.234 4.238-5.905 7.585-10.381 3.346-4.476 10.36-14.663 15.586-22.638 5.226-7.975 12.443-19.45 16.039-25.5 3.596-6.05 8.5-14.6 10.897-19 2.397-4.4 5.779-10.7 7.515-14 1.736-3.3 6.622-12.975 10.857-21.5 4.234-8.525 10.396-21.8 13.692-29.5 3.297-7.7 6.632-15.418 7.411-17.151.78-1.733 1.418-3.781 1.418-4.55 0-.77.408-1.826.907-2.349.499-.522 1.363-2.525 1.921-4.45.557-1.925 1.974-5.975 3.147-9 1.173-3.025 4.166-11.8 6.651-19.5 2.485-7.7 5.182-16.25 5.994-19 .812-2.75 1.956-7.025 2.543-9.5.587-2.475 1.446-4.972 1.909-5.55.462-.577 1.146-3.052 1.521-5.5.374-2.447 1.068-4.945 1.542-5.551.474-.605 1.15-3.305 1.502-6 .352-2.694 1.054-5.706 1.56-6.692.506-.986 1.582-5.036 2.391-9a5529.54 5529.54 0 0 0 2.876-14.207c.773-3.85 2.325-11.95 3.448-18 1.124-6.05 2.947-17.3 4.051-25 1.105-7.7 2.672-20.525 3.483-28.5.811-7.975 2.004-24.4 2.652-36.5.706-13.192.939-33.01.581-49.5-.328-15.125-1.078-33.575-1.667-41-.588-7.425-2.187-22.5-3.552-33.5-1.366-11-3.631-26.3-5.035-34-1.403-7.7-3.18-17.15-3.948-21-.769-3.85-2.335-10.825-3.48-15.5-1.145-4.675-2.481-10.608-2.969-13.183-.488-2.576-1.311-5.501-1.829-6.5-.519-1-1.252-3.944-1.629-6.544-.377-2.599-1.059-4.957-1.514-5.239-.456-.281-1.137-2.204-1.514-4.273-.376-2.069-1.335-5.786-2.131-8.261-.796-2.475-4.338-13.275-7.871-24-3.534-10.725-7.146-21.525-8.027-24-.881-2.475-2.19-5.85-2.908-7.5a147.917 147.917 0 0 1-2.595-6.5c-.71-1.925-3.787-9.35-6.839-16.5-3.052-7.15-11.249-24.25-18.218-38-6.968-13.75-13.929-27.25-15.468-30-1.54-2.75-5.744-9.95-9.342-16-3.598-6.05-10.143-16.4-14.545-23-4.402-6.6-10.267-15.15-13.033-19-2.765-3.85-5.401-7.45-5.858-8-.456-.55-4.064-5.504-8.018-11.009-3.954-5.505-9.861-13.38-13.128-17.5-3.266-4.12-10.221-12.441-15.454-18.491-5.234-6.05-11.558-13.25-14.053-16-2.495-2.75-13.321-13.775-24.058-24.5s-21.766-21.545-24.509-24.045c-2.743-2.5-9.969-8.882-16.059-14.182-6.09-5.301-17.847-14.73-26.128-20.955-8.28-6.225-16.045-11.993-17.255-12.818-1.21-.825-3.519-2.581-5.131-3.902-1.612-1.321-8.439-6.176-15.172-10.789-6.733-4.612-15.617-10.413-19.742-12.891a2502.386 2502.386 0 0 1-9.476-5.711c-1.086-.664-4.236-2.581-7-4.261-2.763-1.68-9.074-5.257-14.024-7.95-4.95-2.692-11.7-6.378-15-8.191-3.3-1.813-13.2-6.845-22-11.182-8.8-4.337-22.525-10.66-30.5-14.05-7.975-3.391-15.281-6.594-16.236-7.119-.955-.525-2.237-.954-2.849-.954-.612 0-2.531-.655-4.264-1.455-1.733-.801-5.176-2.182-7.651-3.069-2.475-.887-5.85-2.001-7.5-2.476-1.65-.475-5.025-1.616-7.5-2.536-2.475-.92-11.475-3.924-20-6.675-8.525-2.752-17.862-5.63-20.75-6.396-2.888-.766-7.837-2.111-11-2.988a577.701 577.701 0 0 0-11.75-3.096c-3.3-.825-9.825-2.389-14.5-3.474-4.675-1.085-11.65-2.599-15.5-3.363-3.85-.765-11.95-2.304-18-3.421-6.05-1.117-15.95-2.727-22-3.578-6.05-.85-18.875-2.405-28.5-3.455-9.625-1.049-26.05-2.382-36.5-2.961-10.45-.579-28.45-.987-40-.908-11.55.08-27.525.508-35.5.952m4.5 38.966c-8.8.419-24.753 1.725-35.452 2.901-10.699 1.176-25.099 3.007-32 4.068-6.901 1.062-17.449 2.833-23.439 3.937-5.989 1.104-17.889 3.633-26.443 5.62-8.553 1.987-20.303 4.937-26.109 6.556-5.806 1.618-16.407 4.781-23.557 7.029-7.15 2.248-18.85 6.205-26 8.795-7.15 2.589-20.875 7.974-30.5 11.967-9.625 3.992-26.95 11.909-38.5 17.593-11.55 5.684-27.75 14.215-36 18.958-8.25 4.742-21.075 12.519-28.5 17.282-7.425 4.762-20.25 13.45-28.5 19.306-8.25 5.856-19.95 14.594-26 19.417-6.05 4.824-17.075 13.986-24.5 20.362-7.425 6.375-22.754 20.828-34.064 32.117-11.31 11.289-25.035 25.7-30.5 32.025-5.466 6.325-12.002 13.975-14.526 17-2.524 3.025-8.392 10.45-13.04 16.5-4.648 6.05-12.278 16.4-16.956 23-4.679 6.6-11.144 16.05-14.367 21a849.108 849.108 0 0 0-11.34 18c-3.013 4.95-8.393 14.175-11.955 20.5-3.562 6.325-10.89 20.5-16.283 31.5-5.393 11-12.36 26.075-15.482 33.5-3.121 7.425-8.047 19.8-10.947 27.5-2.9 7.7-7.359 20.39-9.91 28.2-2.551 7.811-6.692 21.761-9.202 31-2.51 9.24-6.084 23.775-7.943 32.3-1.858 8.525-4.286 20.9-5.395 27.5-1.109 6.6-2.694 16.725-3.523 22.5-.829 5.775-2.176 17.025-2.994 25-.817 7.975-2.017 23.725-2.666 35-.722 12.53-.946 31.191-.576 48 .332 15.125 1.305 34.925 2.161 44 .856 9.075 2.228 21.9 3.049 28.5.821 6.6 2.637 18.75 4.035 27 1.399 8.25 3.681 20.4 5.072 27 1.391 6.6 4.491 19.689 6.889 29.086 2.398 9.397 7.358 26.272 11.021 37.5 3.664 11.228 9.48 27.614 12.925 36.414 3.445 8.8 9.05 22.3 12.457 30 3.407 7.7 11.032 23.455 16.945 35.011 5.913 11.556 14.949 27.981 20.08 36.5 5.131 8.519 14.054 22.464 19.829 30.989 5.774 8.525 14.966 21.43 20.425 28.677 5.46 7.247 13.99 18.047 18.957 24 4.966 5.953 14.107 16.448 20.313 23.323 6.207 6.875 19.098 20.15 28.648 29.5 9.55 9.35 22.088 21.087 27.863 26.081 5.775 4.995 16.54 13.922 23.922 19.839 7.382 5.917 19.307 14.92 26.5 20.008 7.193 5.088 17.128 11.947 22.078 15.243 4.95 3.295 14.261 9.2 20.691 13.123 6.431 3.922 18.584 10.861 27.007 15.419 8.423 4.558 22.512 11.753 31.308 15.989 8.797 4.235 23.194 10.691 31.994 14.346 8.8 3.655 20.95 8.443 27 10.64 6.05 2.197 14.15 5.047 18 6.333 3.85 1.287 12.175 3.926 18.5 5.866 6.325 1.94 16.45 4.858 22.5 6.486 6.05 1.628 18.2 4.537 27 6.466 8.8 1.929 24.325 4.879 34.5 6.556 10.175 1.676 26.6 3.945 36.5 5.042 9.9 1.097 26.037 2.46 35.861 3.029 9.823.569 27.211 1.034 38.639 1.034 11.428 0 28.816-.465 38.639-1.034 9.824-.569 25.961-1.933 35.861-3.031 9.9-1.098 26.325-3.36 36.5-5.027 10.175-1.666 25.7-4.614 34.5-6.552 8.8-1.938 20.95-4.855 27-6.483 6.05-1.628 16.175-4.546 22.5-6.486 6.325-1.94 14.65-4.579 18.5-5.866 3.85-1.286 11.95-4.146 18-6.356 6.05-2.209 16.4-6.245 23-8.969 6.6-2.723 15.632-6.53 20.072-8.459 4.44-1.93 16.59-7.772 27-12.982 10.41-5.211 25.003-12.968 32.428-17.238 7.425-4.27 19.25-11.42 26.278-15.89 7.028-4.47 18.503-12.13 25.5-17.023 6.997-4.892 18.572-13.435 25.722-18.984 7.15-5.548 19.3-15.484 27-22.078 7.7-6.595 21.813-19.652 31.363-29.016 9.55-9.365 22.441-22.651 28.648-29.526 6.206-6.875 15.414-17.45 20.462-23.5 5.047-6.05 13.639-16.933 19.093-24.185 5.453-7.252 15.062-20.839 21.353-30.194 6.291-9.355 13.791-20.972 16.667-25.815a1517.102 1517.102 0 0 0 11-18.924c3.174-5.565 9.798-18.165 14.72-28 4.921-9.835 12.327-25.757 16.457-35.382 4.129-9.625 9.757-23.575 12.505-31 2.749-7.425 7.123-20.025 9.72-28 2.597-7.975 6.883-22.399 9.524-32.054 2.641-9.655 6.441-25.542 8.445-35.304 2.003-9.761 4.498-23.012 5.543-29.445 1.046-6.433 2.806-18.897 3.913-27.697 1.107-8.8 2.581-22.75 3.275-31 .71-8.443 1.268-30.737 1.276-51 .008-20.966-.522-42.264-1.27-51-.706-8.25-2.172-22.425-3.258-31.5-1.087-9.075-3.339-24.375-5.004-34-1.666-9.625-4.576-24.329-6.468-32.675-1.891-8.346-5.059-21.171-7.039-28.5-1.98-7.329-6.656-22.55-10.39-33.825-3.733-11.275-9.496-27.25-12.806-35.5-3.309-8.25-8.168-19.95-10.796-26-2.628-6.05-9.798-20.9-15.933-33-6.135-12.1-15.344-28.975-20.464-37.5-5.12-8.525-13.779-22.206-19.242-30.402-5.463-8.196-14.397-20.876-19.854-28.178-5.456-7.301-14.714-19.045-20.572-26.098-5.859-7.052-14.07-16.647-18.247-21.322-4.177-4.675-13.451-14.517-20.608-21.872-7.157-7.354-19.782-19.504-28.055-27-8.273-7.495-19.748-17.485-25.5-22.198-5.752-4.714-14.283-11.494-18.958-15.067-4.675-3.573-13.9-10.319-20.5-14.99-6.6-4.672-17.85-12.239-25-16.815-7.15-4.576-19.975-12.342-28.5-17.257-8.525-4.916-24.95-13.587-36.5-19.269-11.55-5.683-29.323-13.784-39.496-18.001-10.173-4.218-26.148-10.373-35.5-13.678-9.352-3.305-25.329-8.405-35.504-11.333-10.175-2.929-25.524-6.948-34.109-8.932-8.586-1.984-20.511-4.511-26.5-5.615-5.99-1.104-16.516-2.872-23.391-3.929s-20.941-2.853-31.257-3.991c-10.317-1.138-28.092-2.506-39.5-3.039-11.409-.534-27.718-.911-36.243-.84-8.525.072-22.7.474-31.5.893m-.5 51.019c-6.875.439-17.45 1.295-23.5 1.902-6.05.607-19.325 2.247-29.5 3.644-10.175 1.397-26.15 4.105-35.5 6.019-9.35 1.914-23.075 5.057-30.5 6.984-7.425 1.928-19.435 5.291-26.689 7.473-7.253 2.182-18.053 5.713-24 7.846-5.946 2.133-14.904 5.449-19.907 7.37-5.002 1.921-14.002 5.625-20 8.23-5.997 2.605-16.767 7.518-23.933 10.917-7.165 3.399-19 9.427-26.298 13.397-7.299 3.97-17.861 9.954-23.472 13.296-5.611 3.343-16.925 10.565-25.143 16.048-8.218 5.484-20.368 14.054-27 19.044-6.632 4.991-16.608 12.799-22.17 17.352-5.561 4.553-15.011 12.683-21 18.068-5.988 5.385-15.328 14.074-20.755 19.308-5.426 5.234-15.577 15.816-22.558 23.516-6.98 7.7-16.288 18.275-20.684 23.5-4.397 5.225-10.913 13.325-14.481 18-3.569 4.675-10.308 13.9-14.978 20.5-4.669 6.6-11.472 16.55-15.118 22.112-3.646 5.561-9.784 15.534-13.642 22.162-3.857 6.627-10.399 18.502-14.536 26.388-4.138 7.886-10.408 20.638-13.932 28.338-3.525 7.7-8.784 19.85-11.687 27-2.904 7.15-7.26 18.625-9.681 25.5-2.421 6.875-6.387 19.025-8.813 27-2.426 7.975-5.788 19.944-7.471 26.598-1.682 6.653-4.64 19.928-6.573 29.5-1.933 9.571-4.384 23.477-5.446 30.902-1.062 7.425-2.4 17.55-2.974 22.5-.573 4.95-1.591 14.85-2.261 22-.693 7.384-1.218 28.337-1.216 48.5.002 20.89.525 41.056 1.272 49 .697 7.425 2.131 20.475 3.186 29 1.055 8.525 2.36 18.426 2.9 22.003.54 3.576 2.366 13.476 4.058 22 1.692 8.523 4.658 21.797 6.591 29.497 1.933 7.7 5.516 20.594 7.963 28.654 2.447 8.06 6.068 19.31 8.047 25 1.979 5.69 5.18 14.396 7.112 19.346 1.932 4.95 6.252 15.3 9.599 23 3.347 7.7 10.48 22.808 15.85 33.573 5.371 10.765 14.336 27.19 19.924 36.5 5.587 9.31 14.452 23.227 19.7 30.927 5.247 7.7 12.923 18.5 17.056 24 4.133 5.5 11.368 14.725 16.078 20.5 4.709 5.775 12.154 14.55 16.544 19.5 4.389 4.95 13.619 14.801 20.51 21.891 6.89 7.089 19.503 19.208 28.028 26.929 8.525 7.722 21.8 19.059 29.5 25.193 7.7 6.135 18.275 14.241 23.5 18.013 5.225 3.772 16.475 11.436 25 17.031 8.525 5.595 21.546 13.648 28.935 17.895 7.39 4.248 21.492 11.756 31.339 16.685 9.847 4.93 25.627 12.258 35.065 16.286 9.439 4.028 23.686 9.655 31.661 12.504 7.975 2.85 16.3 5.802 18.5 6.56 2.2.758 8.5 2.728 14 4.379 5.5 1.65 16.075 4.585 23.5 6.521 7.425 1.936 20.025 4.861 28 6.501 7.975 1.639 20.125 3.893 27 5.007 6.875 1.115 17.9 2.709 24.5 3.543 6.6.834 21.225 2.201 32.5 3.038 11.275.836 31.075 1.521 44 1.521s32.725-.683 44-1.518c11.275-.834 27.475-2.432 36-3.551 8.525-1.118 20.675-2.932 27-4.03 6.325-1.098 16-2.915 21.5-4.038 5.5-1.123 16.975-3.822 25.5-5.998 8.525-2.175 20-5.315 25.5-6.976 5.5-1.662 11.8-3.641 14-4.399 2.2-.758 10.525-3.71 18.5-6.56 7.975-2.849 22.341-8.527 31.924-12.617 9.584-4.09 25.334-11.401 35-16.246 9.667-4.846 23.651-12.297 31.076-16.557 7.425-4.26 21.825-13.254 32-19.987 10.175-6.732 24.35-16.656 31.5-22.053 7.15-5.397 16.825-12.987 21.5-16.867 4.675-3.88 13.225-11.297 19-16.483 5.775-5.187 16.27-15.097 23.323-22.023 7.052-6.927 17.873-18.219 24.045-25.094 6.173-6.875 14.611-16.55 18.753-21.5 4.142-4.95 11.589-14.4 16.551-21 4.961-6.6 13.305-18.3 18.543-26 5.237-7.7 11.995-18.05 15.018-23 3.023-4.95 8.202-13.725 11.509-19.5 3.306-5.775 9.174-16.82 13.039-24.545 3.865-7.725 9.365-19.2 12.223-25.5 2.857-6.3 7.913-18.205 11.235-26.455 3.322-8.25 9.158-24.45 12.97-36 3.811-11.55 8.905-28.887 11.319-38.527 2.413-9.64 5.742-24.265 7.396-32.5s4.128-22.848 5.497-32.473c1.37-9.625 3.271-25.375 4.225-35 1.306-13.182 1.732-26.753 1.725-55-.007-27.886-.445-41.859-1.708-54.5-.934-9.35-2.392-22.175-3.238-28.5-.847-6.325-2.421-16.675-3.498-23-1.078-6.325-2.649-14.875-3.492-19s-3.096-14.025-5.006-22c-1.911-7.975-5.709-21.971-8.442-31.103-2.732-9.132-6.991-22.306-9.464-29.277-2.473-6.971-6.56-17.725-9.084-23.897a1043.325 1043.325 0 0 0-9.451-22.231c-2.676-6.054-7.58-16.508-10.899-23.229-3.319-6.722-9.494-18.419-13.722-25.993-4.228-7.573-10.633-18.495-14.232-24.27-3.599-5.775-9.458-14.775-13.021-20-3.563-5.225-10.063-14.45-14.445-20.5-4.382-6.05-12.662-16.748-18.4-23.774-5.739-7.025-16.638-19.625-24.221-28-7.582-8.374-18.458-19.73-24.167-25.236-5.71-5.505-14.881-14.061-20.381-19.013-5.5-4.952-14.725-12.861-20.5-17.575-5.775-4.715-15.935-12.662-22.577-17.66-6.643-4.999-19.468-14.011-28.5-20.026-9.033-6.015-22.498-14.463-29.923-18.775-7.425-4.311-21.6-11.941-31.5-16.957-9.9-5.015-24.34-11.888-32.09-15.273-7.749-3.385-18.324-7.78-23.5-9.767-5.175-1.987-14.275-5.357-20.221-7.49-5.947-2.133-16.747-5.664-24-7.846-7.254-2.182-19.264-5.543-26.689-7.468-7.425-1.925-20.025-4.847-28-6.495-7.975-1.647-18.775-3.692-24-4.543-5.225-.852-13.136-2.022-17.58-2.6a1625.516 1625.516 0 0 0-16.5-2.039c-4.631-.543-17.87-1.651-29.42-2.461-11.55-.81-30.45-1.415-42-1.344-11.55.071-26.625.489-33.5.928M669 115.6c-8.525.751-22.475 2.305-31 3.454-8.525 1.149-24.414 3.851-35.308 6.005-10.895 2.153-26.736 5.714-35.202 7.912-8.467 2.198-24.753 7.104-36.192 10.901-11.439 3.798-26.423 9.161-33.298 11.918-6.875 2.757-16.55 6.802-21.5 8.989a1008.432 1008.432 0 0 0-18.5 8.454c-5.225 2.463-15.575 7.753-23 11.756-7.425 4.004-19.125 10.655-26 14.78s-17.9 11.111-24.5 15.523c-6.6 4.413-17.175 11.849-23.5 16.526-6.325 4.677-14.875 11.219-19 14.539-4.125 3.32-12.675 10.514-19 15.987-6.325 5.474-20.508 18.998-31.518 30.054-11.01 11.056-25.421 26.402-32.025 34.102-6.604 7.7-17.224 20.975-23.601 29.5-6.376 8.525-15.63 21.575-20.564 29-4.933 7.425-12.604 19.623-17.047 27.108-4.442 7.484-11.87 20.984-16.505 30-4.636 9.015-11.392 23.142-15.014 31.392s-8.011 18.6-9.753 23c-1.741 4.4-5.111 13.4-7.489 20-2.377 6.6-6.361 18.525-8.852 26.5-2.491 7.975-6.098 20.8-8.016 28.5-1.917 7.7-4.623 19.625-6.012 26.5-1.389 6.875-3.209 16.55-4.045 21.5-.835 4.95-2.391 15.975-3.457 24.5-1.066 8.525-2.518 22.7-3.227 31.5-.709 8.8-1.289 28.825-1.289 44.5s.573 35.7 1.274 44.5c.701 8.8 2.141 22.975 3.201 31.5 1.06 8.525 3.07 22.025 4.466 30 1.397 7.975 3.692 19.675 5.102 26 1.409 6.325 4.355 18.25 6.547 26.5 2.191 8.25 6.644 22.97 9.895 32.71 3.251 9.741 8.168 23.371 10.929 30.289 2.76 6.919 7.743 18.749 11.074 26.29 3.33 7.541 10.07 21.486 14.977 30.989 4.907 9.502 13.037 24.127 18.066 32.5 5.03 8.372 13.609 21.79 19.066 29.819 5.457 8.028 15.186 21.36 21.619 29.628 6.434 8.268 17.175 21.274 23.869 28.904 6.694 7.629 19.969 21.591 29.5 31.027 9.531 9.436 21.604 20.915 26.829 25.51 5.225 4.595 15.125 12.866 22 18.38 6.875 5.514 16.55 12.969 21.5 16.567 4.95 3.598 14.4 10.144 21 14.547 6.6 4.403 18.3 11.759 26 16.348 7.7 4.588 22.1 12.504 32 17.592 9.9 5.087 24.075 11.923 31.5 15.191 7.425 3.268 21.245 8.915 30.712 12.55 9.467 3.634 25.002 9.062 34.522 12.061 9.521 3 23.825 7.07 31.788 9.046 7.963 1.976 18.753 4.457 23.978 5.514 5.225 1.056 14.45 2.811 20.5 3.898 6.05 1.088 14.659 2.481 19.132 3.097 4.473.615 14.148 1.766 21.5 2.558 7.352.792 24.73 1.968 38.618 2.614 19.326.898 31.174.898 50.5 0 13.887-.646 31.266-1.822 38.618-2.614 7.352-.792 17.027-1.943 21.5-2.558 4.473-.616 13.082-2.009 19.132-3.097 6.05-1.087 15.275-2.842 20.5-3.898 5.225-1.057 16.015-3.538 23.978-5.514 7.963-1.976 22.267-6.046 31.788-9.046 9.52-2.999 25.055-8.427 34.522-12.061 9.467-3.635 23.125-9.22 30.351-12.412 7.227-3.192 19.152-8.808 26.5-12.481 7.349-3.672 20.111-10.518 28.361-15.212 8.25-4.695 22.2-13.252 31-19.016 8.8-5.764 21.175-14.321 27.5-19.017 6.325-4.695 15.775-12.001 21-16.234 5.225-4.234 14-11.617 19.5-16.407 5.5-4.791 16.925-15.54 25.389-23.886 8.463-8.347 19.493-19.702 24.51-25.235 5.016-5.532 13.429-15.207 18.694-21.5 5.265-6.292 13.763-17.066 18.884-23.941 5.122-6.875 12.773-17.675 17.004-24 4.23-6.325 11.63-17.984 16.444-25.909 4.814-7.925 12.956-22.55 18.093-32.5 5.137-9.95 12.125-24.391 15.528-32.091 3.403-7.7 8.619-20.216 11.592-27.812 2.972-7.597 7.64-20.523 10.374-28.724 2.734-8.201 6.52-20.435 8.414-27.187 1.895-6.752 4.366-16.102 5.492-20.777 1.126-4.675 3.392-15.25 5.035-23.5 1.643-8.25 3.697-19.725 4.565-25.5.868-5.775 2.211-15.9 2.983-22.5.773-6.6 1.942-18.975 2.599-27.5.656-8.525 1.193-28.325 1.193-44s-.537-35.475-1.193-44c-.657-8.525-1.824-20.9-2.594-27.5-.77-6.6-1.898-15.375-2.507-19.5-.608-4.125-2.687-15.6-4.62-25.5-1.932-9.9-5.316-25.198-7.519-33.996-2.204-8.798-6.421-23.423-9.372-32.5-2.951-9.077-6.927-20.779-8.836-26.004-1.908-5.225-6.391-16.475-9.961-25-3.57-8.525-8.932-20.675-11.916-27-2.983-6.325-8.941-18.025-13.239-26-4.298-7.975-10.53-19-13.849-24.5-3.319-5.5-10.064-16.075-14.989-23.5-4.926-7.425-12.798-18.675-17.494-25-4.696-6.325-11.995-15.775-16.22-21s-13.322-15.8-20.216-23.5c-6.893-7.7-19.224-20.552-27.401-28.56s-20.532-19.489-27.456-25.514c-6.923-6.025-19.117-15.992-27.096-22.149-7.98-6.157-22.115-16.327-31.412-22.601-9.297-6.273-23.428-15.219-31.403-19.881-7.975-4.661-21.025-11.84-29-15.954-7.975-4.114-20.575-10.219-28-13.567-7.425-3.348-19.35-8.427-26.5-11.285-7.15-2.859-22.225-8.277-33.5-12.04-11.275-3.764-27.561-8.672-36.192-10.909-8.63-2.236-24.605-5.828-35.5-7.981-10.894-2.154-26.783-4.85-35.308-5.992-8.525-1.142-23.375-2.746-33-3.566-11.661-.992-29.012-1.452-52-1.378-19.915.064-41.052.688-50 1.477m11 16.98c-10.175.733-24.125 2.039-31 2.901-6.875.863-19.25 2.709-27.5 4.102-8.25 1.394-20.85 3.842-28 5.44-7.15 1.599-16.6 3.845-21 4.991-4.4 1.146-14.075 3.922-21.5 6.168-7.425 2.245-19.575 6.215-27 8.821-7.425 2.607-19.8 7.31-27.5 10.452-7.7 3.142-22.1 9.643-32 14.447-9.9 4.804-24.975 12.698-33.5 17.542-8.525 4.845-19.775 11.558-25 14.919-5.225 3.36-14.675 9.696-21 14.079-6.325 4.383-17.31 12.489-24.41 18.014-7.101 5.524-17.897 14.319-23.993 19.544-6.095 5.225-18.01 16.25-26.477 24.5-8.467 8.25-20.846 21.101-27.508 28.558-6.661 7.457-16.434 18.932-21.717 25.5-5.283 6.568-12.664 16.188-16.404 21.377-3.739 5.19-10.263 14.64-14.498 21-4.234 6.361-11.222 17.415-15.529 24.565-4.307 7.15-12.611 22.45-18.453 34-5.843 11.55-11.818 23.7-13.278 27-1.461 3.3-4.417 10.275-6.569 15.5s-6.202 15.8-9 23.5c-2.798 7.7-7.146 20.75-9.663 29-2.517 8.25-6.329 22.2-8.472 31-2.142 8.8-5.026 21.85-6.407 29-1.382 7.15-3.429 19.3-4.549 27-1.12 7.7-2.792 21.425-3.714 30.5-1.235 12.142-1.686 26.273-1.707 53.5-.022 27.877.398 41.315 1.704 54.5.952 9.625 2.634 23.575 3.737 31 1.103 7.425 3.314 20.25 4.913 28.5 1.599 8.25 4.663 21.975 6.809 30.5 2.146 8.525 5.133 19.55 6.638 24.5 1.505 4.95 4.555 14.4 6.777 21 2.222 6.6 6.508 18.3 9.524 26 3.016 7.7 7.498 18.5 9.96 24 2.462 5.5 7.871 16.75 12.02 25 4.149 8.25 10.36 19.961 13.802 26.024 3.441 6.063 9.053 15.513 12.469 21 3.416 5.487 9.618 14.926 13.782 20.976 4.164 6.05 10.942 15.5 15.063 21 4.12 5.5 12.739 16.3 19.152 24 6.414 7.7 16.942 19.526 23.397 26.28 6.455 6.754 17.669 17.948 24.919 24.877 7.25 6.928 18.132 16.738 24.182 21.801 6.05 5.062 17.525 14.159 25.5 20.215 7.975 6.057 20.575 15.065 28 20.018 7.425 4.953 20.025 12.821 28 17.483 7.975 4.663 19 10.854 24.5 13.757 5.5 2.904 16.75 8.425 25 12.268s19.5 8.793 25 11.001 15.946 6.196 23.213 8.862c7.267 2.667 19.867 6.875 28 9.352 8.133 2.477 21.087 6.082 28.787 8.011 7.7 1.928 20.75 4.858 29 6.509 8.25 1.652 23.1 4.131 33 5.511 9.9 1.38 27.098 3.194 38.218 4.032 11.12.838 30.597 1.523 43.282 1.523 12.685 0 32.162-.685 43.282-1.523 11.12-.838 28.318-2.652 38.218-4.032 9.9-1.38 24.75-3.859 33-5.511 8.25-1.651 21.3-4.582 29-6.513 7.7-1.931 20.075-5.351 27.5-7.599 7.425-2.248 18.9-6.006 25.5-8.352 6.6-2.346 17.625-6.519 24.5-9.275 6.875-2.755 18.8-7.94 26.5-11.522 7.7-3.582 20.3-9.857 28-13.945 7.7-4.088 19.175-10.5 25.5-14.249 6.325-3.748 17.575-10.868 25-15.821 7.425-4.953 19.575-13.583 27-19.177 7.425-5.594 19.125-14.847 26-20.562 6.875-5.715 20.991-18.723 31.369-28.905 10.377-10.183 23.689-23.914 29.582-30.514 5.892-6.6 14.527-16.725 19.188-22.5 4.661-5.775 12.244-15.665 16.851-21.978 4.607-6.313 12.515-17.788 17.572-25.5 5.058-7.712 12.661-20.059 16.897-27.437 4.235-7.379 11.22-20.429 15.52-29 4.301-8.572 9.836-20.085 12.301-25.585s6.97-16.3 10.01-24c3.04-7.7 7.348-19.4 9.574-26 2.226-6.6 5.823-18.103 7.993-25.562 2.169-7.458 5.747-21.408 7.95-31 2.203-9.591 5.132-23.963 6.51-31.938 1.377-7.975 3.009-18.325 3.627-23 .618-4.675 1.558-13 2.089-18.5.53-5.5 1.469-17.65 2.086-27 .665-10.069.888-28.007.547-44-.317-14.85-1.281-34.2-2.142-43-.862-8.8-2.478-22.3-3.592-30-1.113-7.7-3.594-21.875-5.511-31.5-1.918-9.625-5.067-23.575-6.998-31-1.931-7.425-5.108-18.675-7.059-25-1.952-6.325-5.04-15.775-6.863-21-1.822-5.225-4.656-13.1-6.298-17.5-1.641-4.4-5.775-14.525-9.185-22.5-3.411-7.975-10.422-22.825-15.58-33-5.158-10.175-13.264-25.025-18.013-33-4.749-7.975-10.684-17.65-13.189-21.5-2.506-3.85-7.714-11.5-11.574-17-3.86-5.5-10.854-14.95-15.541-21-4.687-6.05-13.269-16.619-19.071-23.486-5.803-6.868-18.2-20.311-27.55-29.874-9.35-9.563-23.167-22.771-30.704-29.352-7.538-6.581-17.213-14.768-21.5-18.193-4.288-3.425-12.296-9.63-17.796-13.788-5.5-4.158-16.75-12.036-25-17.507-8.25-5.47-18.825-12.215-23.5-14.989-4.675-2.774-13.461-7.786-19.525-11.139-6.064-3.353-18.439-9.672-27.5-14.043-9.061-4.37-22.775-10.52-30.475-13.666-7.7-3.147-20.075-7.853-27.5-10.46-7.425-2.606-19.575-6.576-27-8.821-7.425-2.246-17.1-5.022-21.5-6.168-4.4-1.146-13.85-3.392-21-4.991-7.15-1.598-19.75-4.045-28-5.436-8.25-1.392-20.4-3.212-27-4.044-6.6-.833-21.675-2.192-33.5-3.02-11.825-.828-30.5-1.454-41.5-1.391-11 .063-28.325.715-38.5 1.448m16 23.032c-3.575.208-14.6 1.063-24.5 1.899-9.9.837-22.95 2.213-29 3.057-6.05.845-19.1 3.08-29 4.967-9.9 1.887-25.13 5.242-33.845 7.454-8.715 2.212-22.89 6.324-31.5 9.137-8.61 2.813-21.73 7.475-29.155 10.36-7.425 2.885-18.9 7.587-25.5 10.449-6.6 2.863-20.55 9.596-31 14.962-10.45 5.367-23.725 12.597-29.5 16.066-5.775 3.47-16.305 10.13-23.401 14.801-7.095 4.671-19.92 13.797-28.5 20.28-8.579 6.482-20.991 16.437-27.581 22.121-6.59 5.684-18.009 16.185-25.376 23.335-7.367 7.15-19.091 19.3-26.053 27-6.962 7.7-15.607 17.6-19.211 22-3.604 4.4-10.283 12.95-14.843 19-4.559 6.05-12.911 17.975-18.559 26.5-5.648 8.525-13.491 21.125-17.429 28-3.937 6.875-11.126 20.375-15.975 30s-10.942 22.411-13.54 28.414c-2.598 6.002-6.886 16.577-9.53 23.5-2.643 6.922-7.087 19.561-9.875 28.086-2.788 8.525-6.843 22.475-9.01 31-2.168 8.525-4.86 20-5.984 25.5-1.123 5.5-2.948 15.175-4.054 21.5-1.107 6.325-2.696 16.9-3.531 23.5-.836 6.6-2.197 21.675-3.025 33.5-.828 11.825-1.51 28.802-1.514 37.726-.005 8.925.679 26.25 1.52 38.5.84 12.251 2.409 28.731 3.485 36.622 1.076 7.892 3.331 21.842 5.013 31 1.681 9.159 5.113 24.735 7.627 34.615 2.513 9.88 6.943 25.18 9.842 34 2.9 8.82 7.087 20.762 9.304 26.537 2.218 5.775 6.269 15.675 9.004 22 2.735 6.325 7.279 16.345 10.097 22.266 2.819 5.922 8.892 17.622 13.496 26 4.604 8.379 10.739 19.059 13.634 23.734 2.895 4.675 8.411 13.225 12.258 19 3.847 5.775 11.347 16.35 16.666 23.5 5.32 7.15 14.368 18.625 20.107 25.5 5.739 6.875 19.211 21.445 29.937 32.379 10.725 10.933 25.836 25.333 33.579 32 7.743 6.666 20.343 16.878 28 22.693 7.657 5.814 18.872 13.962 24.922 18.106 6.05 4.145 16.625 10.912 23.5 15.04 6.875 4.127 18.535 10.78 25.911 14.785 7.375 4.004 20.448 10.533 29.049 14.509 8.602 3.976 22.142 9.821 30.09 12.99 7.947 3.169 22.325 8.366 31.95 11.55 9.625 3.183 24.475 7.576 33 9.762 8.525 2.186 20 4.901 25.5 6.032 5.5 1.132 13.825 2.759 18.5 3.615 4.675.857 13 2.207 18.5 3 5.5.793 18.1 2.238 28 3.21 13.319 1.307 26.972 1.767 52.5 1.767s39.181-.46 52.5-1.767c9.9-.972 22.5-2.417 28-3.21 5.5-.793 13.825-2.143 18.5-2.999 4.675-.857 14.927-2.913 22.781-4.571 7.855-1.657 21.355-4.98 30-7.384 8.646-2.405 21.569-6.387 28.719-8.85 7.15-2.463 19.525-7.06 27.5-10.215 7.975-3.155 21.988-9.2 31.14-13.432 9.152-4.232 23.777-11.652 32.5-16.488 8.723-4.837 21.71-12.451 28.86-16.919 7.15-4.469 18.175-11.822 24.5-16.342 6.325-4.519 16.362-11.998 22.305-16.62 5.943-4.621 16.534-13.38 23.536-19.465 7.002-6.084 21.498-19.975 32.213-30.869 10.715-10.894 24.155-25.432 29.867-32.307 5.712-6.875 14.309-17.693 19.104-24.04 4.796-6.347 12.308-16.922 16.696-23.5 4.387-6.578 10.216-15.56 12.954-19.96 2.737-4.4 7.542-12.589 10.678-18.197 3.135-5.608 9.025-16.858 13.088-25 4.064-8.142 9.177-18.872 11.362-23.845 2.186-4.973 5.792-13.523 8.013-19s6.056-15.583 8.521-22.458c2.465-6.875 6.5-19.475 8.965-28 2.466-8.525 5.656-20.475 7.088-26.556 1.432-6.081 3.699-16.656 5.038-23.5 1.34-6.844 3.127-16.944 3.972-22.444.845-5.5 2.526-19 3.736-30 1.838-16.716 2.204-25.829 2.234-55.5.026-26.899-.39-39.619-1.717-52.5-.964-9.35-2.657-23.3-3.763-31-1.105-7.7-3.364-20.75-5.018-29s-4.973-22.65-7.376-32c-2.402-9.35-7.032-24.875-10.289-34.5-3.257-9.625-8.784-24.7-12.283-33.5-3.499-8.8-11.621-26.575-18.05-39.5s-16.051-30.7-21.383-39.5c-5.332-8.8-13.101-20.95-17.266-27-4.165-6.05-12.176-17.075-17.803-24.5-5.626-7.425-14.847-18.9-20.49-25.5-5.643-6.6-19.074-20.798-29.846-31.551-10.772-10.754-25.269-24.389-32.215-30.301-6.946-5.912-18.871-15.498-26.5-21.303-7.629-5.804-20.846-15.173-29.371-20.818-8.525-5.645-21.125-13.496-28-17.447-6.875-3.95-19.925-10.932-29-15.515-9.075-4.584-21.9-10.68-28.5-13.548-6.6-2.868-18.3-7.594-26-10.502-7.7-2.909-20.402-7.37-28.227-9.914-7.824-2.545-21.324-6.428-30-8.63-8.675-2.203-23.873-5.549-33.773-7.436-9.9-1.887-22.95-4.12-29-4.963-6.05-.842-18.65-2.227-28-3.077-9.35-.851-28.7-1.707-43-1.904-14.3-.197-28.925-.187-32.5.021m-1 28.977c-3.575.196-12.125.841-19 1.433-6.875.592-17.675 1.731-24 2.53-6.325.799-14.425 1.938-18 2.532-3.575.593-12.125 2.206-19 3.583-6.875 1.377-17.9 3.846-24.5 5.485-6.6 1.64-18.075 4.809-25.5 7.042-7.425 2.234-19.484 6.247-26.797 8.919-7.313 2.672-19.013 7.296-26 10.274-6.987 2.979-17.203 7.566-22.703 10.193-5.5 2.628-16.975 8.585-25.5 13.237-8.525 4.653-20.9 11.87-27.5 16.037-6.6 4.167-16.5 10.707-22 14.534s-14.95 10.784-21 15.46c-6.05 4.675-15.725 12.557-21.5 17.513-5.775 4.957-17.407 15.791-25.849 24.076-8.442 8.284-19.941 20.238-25.553 26.563-5.611 6.325-14.072 16.3-18.802 22.166s-12.366 15.991-16.97 22.5c-4.605 6.509-11.567 16.784-15.471 22.834-3.905 6.05-10.336 16.625-14.291 23.5s-10.717 19.7-15.026 28.5c-4.309 8.8-10.35 21.983-13.423 29.295-3.074 7.312-7.849 19.594-10.612 27.294-2.763 7.7-7.005 20.842-9.427 29.205-2.422 8.363-5.541 19.931-6.932 25.706-1.39 5.775-3.902 17.845-5.582 26.822-1.68 8.977-3.747 21.802-4.593 28.5-.847 6.698-2.189 20.503-2.983 30.678s-1.444 27.725-1.444 39c0 11.275.638 28.854 1.417 39.064s1.909 22.585 2.51 27.5c.602 4.915 1.569 11.861 2.149 15.436.58 3.575 2.356 13.3 3.947 21.612 1.59 8.311 4.494 21.361 6.453 29 1.959 7.638 5.389 19.738 7.622 26.888 2.233 7.15 6.214 18.85 8.846 26 2.632 7.15 7.581 19.525 10.996 27.5 3.416 7.975 9.182 20.35 12.813 27.5 3.632 7.15 9.587 18.175 13.234 24.5 3.647 6.325 8.571 14.649 10.942 18.499 2.372 3.849 7.026 11.049 10.343 16 3.317 4.95 10.435 14.873 15.819 22.05 5.385 7.177 15.398 19.552 22.253 27.5 6.854 7.948 17.334 19.468 23.288 25.6 5.954 6.132 14.876 14.856 19.826 19.387 4.95 4.532 13.95 12.382 20 17.446 6.05 5.064 15.819 12.858 21.709 17.321 5.89 4.463 17.815 12.796 26.5 18.518 8.685 5.722 21.416 13.656 28.291 17.631 6.875 3.975 21.05 11.431 31.5 16.567 10.45 5.137 25.075 11.804 32.5 14.816 7.425 3.012 19.35 7.511 26.5 9.998 7.15 2.487 18.4 6.116 25 8.065 6.6 1.948 18.525 5.105 26.5 7.015 7.975 1.91 20.575 4.595 28 5.967 7.425 1.372 18.9 3.177 25.5 4.011 6.6.834 17.175 2.089 23.5 2.789 7.205.798 25.133 1.273 48 1.273s40.795-.475 48-1.273c6.325-.7 16.9-1.955 23.5-2.789 6.6-.834 18.075-2.639 25.5-4.011 7.425-1.372 19.93-4.036 27.789-5.92 7.86-1.883 19.11-4.826 25-6.54 5.891-1.714 15.436-4.695 21.211-6.625 5.775-1.93 17.925-6.412 27-9.961 9.075-3.548 26.4-11.346 38.5-17.329 12.1-5.982 29.316-15.293 38.257-20.691 8.942-5.398 22.892-14.404 31-20.015 8.109-5.61 20.605-14.887 27.77-20.615 7.164-5.729 17.964-14.829 24-20.223 6.035-5.394 16.768-15.692 23.851-22.884 7.083-7.192 17.907-18.927 24.054-26.077 6.147-7.15 14.319-17.05 18.159-22 3.841-4.95 9.723-12.825 13.072-17.5 3.349-4.675 9.435-13.675 13.525-20 4.091-6.325 10.084-16 13.319-21.5 3.235-5.5 9.992-18.1 15.015-28 5.024-9.9 12.183-25.2 15.909-34 3.726-8.8 9.849-25.225 13.607-36.5 3.757-11.275 8.395-26.575 10.306-34 1.911-7.425 4.636-18.9 6.055-25.5 1.419-6.6 3.457-17.4 4.529-24 1.073-6.6 2.645-18.075 3.493-25.5.848-7.425 1.999-19.8 2.557-27.5.558-7.7 1.014-23.225 1.014-34.5 0-11.275-.451-26.8-1.002-34.5-.551-7.7-1.471-18.05-2.043-23-.573-4.95-1.715-13.95-2.538-20-.823-6.05-2.639-16.85-4.037-24-1.397-7.15-3.658-17.725-5.025-23.5-1.366-5.775-4.239-16.602-6.383-24.061-2.145-7.458-5.527-18.258-7.517-24-1.989-5.741-6.522-17.778-10.072-26.749-3.551-8.97-9.986-23.595-14.3-32.5-4.314-8.904-12.093-23.615-17.288-32.69s-13.447-22.56-18.339-29.967c-4.891-7.407-13.129-19.107-18.305-26-5.177-6.893-13.739-17.702-19.028-24.02-5.288-6.318-17.715-19.756-27.615-29.861-9.9-10.106-24.903-24.279-33.339-31.496-8.437-7.218-20.362-16.898-26.5-21.513-6.139-4.615-14.536-10.693-18.661-13.506-4.125-2.813-12-7.999-17.5-11.524-5.5-3.526-16.525-10.077-24.5-14.558-7.975-4.482-20.35-10.986-27.5-14.455-7.15-3.469-18.716-8.742-25.703-11.718-6.987-2.976-18.687-7.597-26-10.269-7.313-2.672-19.372-6.685-26.797-8.919-7.425-2.233-18.9-5.404-25.5-7.047-6.6-1.642-16.725-3.952-22.5-5.132-5.775-1.18-14.1-2.764-18.5-3.52-4.4-.756-11.6-1.852-16-2.435-4.4-.584-14.75-1.748-23-2.588-8.25-.839-27.375-1.687-42.5-1.883-15.125-.196-30.425-.196-34 0m1 39.54c-9.075.457-24.15 1.723-33.5 2.813-9.35 1.089-23.3 3.134-31 4.543-7.7 1.409-20.525 4.142-28.5 6.072-7.975 1.93-19.675 5.108-26 7.063-6.325 1.954-15.1 4.827-19.5 6.383a811.243 811.243 0 0 0-15 5.499c-3.85 1.468-11.275 4.479-16.5 6.693-5.225 2.214-16.537 7.538-25.138 11.832-8.6 4.293-19.4 9.934-24 12.535-4.599 2.6-13.762 8.132-20.362 12.292-6.6 4.16-15.825 10.253-20.5 13.54-4.675 3.287-12.325 8.915-17 12.507-4.675 3.592-11.425 8.957-15 11.923-3.575 2.966-12.899 11.247-20.719 18.403-7.82 7.156-20.04 19.369-27.155 27.142-7.114 7.772-15.528 17.281-18.696 21.131-3.168 3.85-9.681 12.241-14.473 18.647-4.793 6.406-12.52 17.431-17.173 24.5-4.653 7.069-11.164 17.578-14.47 23.353-3.305 5.775-8.73 15.675-12.054 22-3.325 6.325-8.625 17.35-11.779 24.5-3.153 7.15-7.642 17.95-9.976 24-2.334 6.05-5.389 14.375-6.789 18.5-1.4 4.125-4.118 12.675-6.041 19-1.922 6.325-5.108 18.25-7.079 26.5s-4.732 21.75-6.136 30-3.466 23.775-4.583 34.5c-1.553 14.909-2.038 26.563-2.057 49.5-.018 20.579.493 35.339 1.628 47 .91 9.35 2.538 22.625 3.618 29.5 1.079 6.875 2.669 16.1 3.533 20.5.864 4.4 2.917 13.625 4.564 20.5 1.647 6.875 5.021 19.216 7.498 27.425 2.478 8.209 6.497 20.282 8.933 26.828 2.436 6.547 6.273 16.256 8.527 21.575 2.255 5.32 7.364 16.422 11.355 24.672 3.991 8.25 10.731 21.075 14.976 28.5 4.246 7.425 12.354 20.475 18.018 29 5.663 8.525 14.474 20.9 19.58 27.5 5.105 6.6 13.335 16.725 18.289 22.5 4.953 5.775 16.693 18.15 26.088 27.5 9.395 9.35 22.255 21.313 28.578 26.584 6.322 5.271 16.285 13.218 22.139 17.659 5.854 4.442 16.204 11.803 23 16.358 6.796 4.555 18.656 11.934 26.356 16.397 7.7 4.464 19.4 10.847 26 14.186 6.6 3.338 17.23 8.37 23.621 11.181 6.392 2.812 16.742 7.09 23 9.507 6.259 2.417 17.895 6.492 25.859 9.055 7.964 2.563 19.664 5.965 26 7.561 6.336 1.595 15.795 3.832 21.02 4.971 5.225 1.139 14.675 2.943 21 4.01 6.325 1.067 17.516 2.627 24.87 3.468 7.353.84 23.44 2.076 35.75 2.745 17.585.957 27.175.957 44.76 0 12.31-.669 28.397-1.905 35.75-2.745 7.354-.84 19.895-2.65 27.87-4.023 7.975-1.373 21.925-4.285 31-6.472 9.075-2.186 23.025-6.038 31-8.559 7.975-2.521 20.329-6.808 27.454-9.528 7.125-2.72 18.15-7.236 24.5-10.037 6.35-2.801 16.82-7.727 23.265-10.948 6.446-3.22 18.371-9.75 26.5-14.512 8.13-4.761 19.506-11.812 25.281-15.667 5.775-3.856 15.471-10.693 21.546-15.194 6.076-4.5 16.648-12.865 23.493-18.59 6.846-5.724 20.363-18.282 30.039-27.907 9.676-9.625 21.606-22.225 26.511-28 4.906-5.775 12.57-15.225 17.032-21 4.461-5.775 11.945-16.125 16.631-23 4.685-6.875 11.725-17.816 15.644-24.312 3.919-6.497 10.693-18.647 15.054-27 4.361-8.354 10.424-20.924 13.474-27.935 3.049-7.011 7.174-16.911 9.166-22 1.991-5.089 5.782-15.778 8.423-23.753s6.406-20.575 8.366-28c1.961-7.425 4.941-20.453 6.623-28.95 1.681-8.498 3.724-20.198 4.539-26 .815-5.803 2.225-17.975 3.134-27.05 1.091-10.899 1.662-26.005 1.682-44.5.017-15.4-.53-33.85-1.214-41-.685-7.15-1.929-18.4-2.765-25-.836-6.6-2.64-18.075-4.009-25.5-1.369-7.425-4.516-21.6-6.995-31.5-2.479-9.9-6.776-24.75-9.55-33-2.773-8.25-7.204-20.4-9.845-27-2.641-6.6-6.137-14.925-7.768-18.5a1480.355 1480.355 0 0 0-7.233-15.5c-2.347-4.95-7.731-15.3-11.965-23-4.234-7.7-10.581-18.515-14.105-24.033-3.525-5.518-10.325-15.643-15.112-22.5-4.787-6.857-11.738-16.292-15.448-20.967-3.709-4.675-11.261-13.675-16.781-20-5.521-6.325-15.669-17.128-22.552-24.007-6.883-6.879-17.69-17.048-24.015-22.597-6.325-5.55-16.9-14.262-23.5-19.361-6.6-5.099-19.65-14.35-29-20.558-9.35-6.208-21.5-13.866-27-17.018-5.5-3.152-17.425-9.452-26.5-14s-20.775-10.073-26-12.279c-5.225-2.205-12.65-5.21-16.5-6.678a811.243 811.243 0 0 0-15-5.499c-4.4-1.556-13.175-4.429-19.5-6.383-6.325-1.955-18.025-5.133-26-7.063-7.975-1.93-20.8-4.662-28.5-6.07-7.7-1.408-21.425-3.425-30.5-4.481s-25.929-2.39-37.454-2.963c-11.525-.574-23-.976-25.5-.895-2.5.082-11.971.523-21.046.981m-66.553 111.274c-2.229.698-6.879 2.776-10.334 4.617-3.766 2.008-8.271 5.577-11.251 8.914-2.734 3.061-6.329 8.321-7.99 11.688-1.662 3.367-3.517 9.33-4.124 13.25-.806 5.208-.804 9.06.007 14.299.673 4.348 2.498 9.981 4.638 14.31 2.379 4.814 5.484 9.005 9.53 12.865 3.453 3.292 8.673 6.968 12.289 8.653 3.459 1.61 9.552 3.43 13.542 4.042 5.133.789 9.193.812 13.89.081 3.65-.568 9.836-2.555 13.746-4.415 3.911-1.86 9.246-5.461 11.856-8.003 2.61-2.542 6.114-6.777 7.786-9.413 1.672-2.635 3.924-7.651 5.004-11.146 1.185-3.834 1.959-9.191 1.952-13.5-.006-3.93-.64-9.505-1.408-12.389-.768-2.884-2.395-7.309-3.617-9.833-1.222-2.523-4.706-7.271-7.742-10.551-3.037-3.28-7.495-7.12-9.907-8.534-2.412-1.413-7.11-3.418-10.439-4.454-4.081-1.27-8.874-1.862-14.714-1.817-4.764.037-10.485.638-12.714 1.336m123.053.001c-2.2.699-6.25 2.429-9 3.844-2.75 1.416-6.865 4.184-9.145 6.151-2.279 1.967-5.791 6.058-7.804 9.09s-4.528 8.036-5.588 11.12c-1.061 3.083-2.219 8.431-2.572 11.883-.442 4.306-.124 8.61 1.011 13.713.984 4.421 3.163 9.991 5.376 13.738 2.047 3.467 6.096 8.475 8.998 11.13 2.902 2.655 8.077 6.188 11.5 7.851 3.423 1.663 9.345 3.508 13.159 4.099 3.815.591 9.44.77 12.5.398 3.061-.373 8.04-1.589 11.065-2.704 3.025-1.114 6.625-2.728 8-3.585 1.375-.858 4.41-3.091 6.745-4.962 2.335-1.872 6.043-6.095 8.241-9.386 2.197-3.291 4.9-8.912 6.005-12.489 1.296-4.197 2.009-9.319 2.009-14.432 0-5.384-.668-9.908-2.082-14.106-1.145-3.4-3.176-8.047-4.513-10.329-1.337-2.282-5.026-6.624-8.197-9.648-3.171-3.025-7.289-6.288-9.15-7.25-1.861-.962-5.856-2.6-8.877-3.64-3.902-1.342-8.13-1.871-14.588-1.823-5.001.037-10.893.638-13.093 1.337M412.266 455.657c-2.565.908-5.763 3.237-8.117 5.911-2.136 2.426-4.413 6.329-5.061 8.672-.859 3.11-1.097 20.861-.882 65.76.294 61.5.294 61.5 3.174 67.734 1.782 3.859 4.747 7.982 7.782 10.821 2.697 2.523 7.026 5.567 9.621 6.766 4.662 2.153 5.437 2.182 66.146 2.459 61.429.279 61.429.279 66.683-2.291 3.673-1.797 6.162-3.942 8.275-7.132 1.661-2.508 3.303-6.442 3.648-8.741.345-2.298.478-12.752.296-23.23-.331-19.05-.331-19.05-3.346-23.924-2.194-3.545-4.473-5.635-8.365-7.668C546.772 548 546.772 548 511.445 548c-22.074 0-35.555-.369-35.935-.983-.334-.541-.576-16.179-.537-34.75.04-19.243-.372-36.133-.958-39.267-.566-3.025-2.266-7.3-3.778-9.5-1.731-2.518-4.759-5.019-8.173-6.75-5.4-2.738-5.508-2.75-25.493-2.671-15.12.059-21.115.449-24.305 1.578m204.67 1.093c-3.552 1.801-6.461 4.246-8.43 7.086-3.006 4.335-3.006 4.335-3.276 74.251-.26 67.372-.2 70.051 1.659 73.664 1.06 2.062 3.207 4.963 4.769 6.446 1.563 1.483 4.515 3.396 6.56 4.25 2.957 1.235 7.979 1.553 24.554 1.553 20.292 0 20.968-.066 25.919-2.533 3.014-1.502 6.156-4.081 7.719-6.337 1.45-2.092 3.076-5.337 3.613-7.21.591-2.062.977-29.224.977-68.797 0-47.227-.327-66.481-1.176-69.316-.647-2.159-2.898-5.882-5.003-8.273-2.513-2.855-5.432-4.895-8.502-5.941-3.653-1.245-8.972-1.593-24.318-1.593-19.447 0-19.696.027-25.065 2.75m125.812-1.323c-2.064.736-5.266 2.493-7.116 3.904-1.85 1.411-4.324 4.609-5.498 7.106-2.113 4.497-2.134 5.198-2.134 72.584 0 54.827.262 68.668 1.348 71.261.742 1.77 2.636 4.745 4.209 6.61 1.573 1.866 4.679 4.219 6.902 5.228 3.496 1.588 6.82 1.839 24.642 1.858 13.209.014 21.82-.399 24-1.15 1.869-.645 4.68-2.108 6.247-3.25 1.566-1.143 4.041-4.103 5.5-6.578 2.652-4.5 2.652-4.5 2.929-71.91.242-58.652.077-68.015-1.269-72.066-.87-2.618-3.179-6.249-5.277-8.297-2.052-2.003-5.7-4.336-8.107-5.184-3.378-1.191-8.733-1.533-23.5-1.499-13.342.031-20.258.449-22.876 1.383m111.289-.253c-1.905.547-4.725 1.892-6.266 2.989-1.54 1.097-3.469 3.287-4.286 4.866-.817 1.58-1.485 5.312-1.485 8.296 0 2.983.631 7.168 1.402 9.299.77 2.132 15.361 32.086 32.422 66.564 23.688 47.869 31.996 63.746 35.144 67.162 2.268 2.46 6.24 5.525 8.828 6.811 4.421 2.198 5.819 2.339 23.204 2.339 17.229 0 18.817-.156 23.12-2.276 2.542-1.253 6.528-4.178 8.859-6.5 3.141-3.13 6.641-9.144 13.515-23.224 5.102-10.45 19.236-38.983 31.408-63.406 12.173-24.423 22.844-46.854 23.714-49.846 1.041-3.579 1.354-6.963.915-9.887-.424-2.828-1.75-5.68-3.645-7.838-1.8-2.051-4.925-4.039-7.895-5.026-4.102-1.362-8.691-1.58-27.704-1.315-19.41.271-23.261.577-25.985 2.067-1.759.962-4.484 3.125-6.056 4.806-1.571 1.681-8.682 14.926-15.801 29.431-7.12 14.506-13.496 26.406-14.17 26.444-.674.039-7.199-11.935-14.5-26.609-8.847-17.779-14.473-27.9-16.866-30.341-2.334-2.38-5.203-4.068-8.193-4.821-2.823-.711-12.642-1.124-25.409-1.069-11.444.05-22.366.538-24.27 1.084M696 678.324a62811.396 62811.396 0 0 1-67 38.602c-22.275 12.816-41.159 23.926-41.964 24.688-1.249 1.182 19.929 1.386 143.627 1.386 117.124 0 145.298-.248 146.161-1.288.588-.708 10.78-18.128 22.648-38.711 11.869-20.582 21.358-38.003 21.085-38.712-.399-1.04-19.561-1.287-99.276-1.277l-98.781.012-26.5 15.3M535.639 786.239c-.782 1.243-7.545 12.892-15.03 25.885-7.485 12.993-13.609 24.19-13.609 24.881 0 .691 3.158 6.778 7.018 13.526 3.859 6.748 7.721 12.539 8.581 12.869.861.33 89.503.6 196.983.6s195.416.337 195.415.75c-.002.413-4.755 9.065-10.562 19.229-5.806 10.163-11.092 18.819-11.746 19.234-.654.416-96.407.763-212.784.772-200.274.014-211.675.109-213.085 1.765-.82.962-11.015 18.303-22.655 38.535C432.524 964.517 423 981.729 423 982.535c0 1.282 26.338 1.465 210.941 1.465 116.018 0 211.153.343 211.412.762.259.419-4.102 8.682-9.691 18.361s-10.78 18.337-11.534 19.238c-1.253 1.496-9.15 1.639-90.628 1.639-81.772 0-89.37-.139-90.628-1.652-.754-.909-3.184-4.842-5.398-8.742-2.214-3.899-4.689-7.209-5.5-7.356-.949-.172-3.663 3.569-7.614 10.492a5843.973 5843.973 0 0 1-15.413 26.758c-5.1 8.8-14.82 25.657-21.599 37.461-6.78 11.803-11.959 21.828-11.509 22.278.449.449 60.857.667 134.239.483 132.706-.333 133.465-.346 141.422-2.478 4.4-1.178 10.475-3.004 13.5-4.057 3.025-1.053 9.01-3.582 13.301-5.62 4.29-2.038 12.494-6.845 18.232-10.682 5.932-3.966 14.698-11.162 20.321-16.68 5.439-5.338 12.344-13.08 15.346-17.205 3.001-4.125 7.013-10.2 8.915-13.5 1.901-3.3 4.91-9.28 6.685-13.288 1.774-4.009 4.414-11.659 5.865-17 2.127-7.831 2.701-12.423 2.966-23.712.18-7.7.337-14.3.349-14.667.011-.366 3.732-3.253 8.27-6.414 4.538-3.161 12.992-10.511 18.787-16.333 6.489-6.52 13.107-14.452 17.229-20.649 3.68-5.535 8.235-13.41 10.122-17.5 1.888-4.09 4.335-10.137 5.439-13.437 1.104-3.3 2.719-9.469 3.59-13.708.886-4.313 1.583-12.594 1.583-18.802 0-6.43-.666-14.122-1.584-18.293-.872-3.958-3.61-11.418-6.086-16.576-3.703-7.717-5.947-10.838-12.665-17.61-6.769-6.824-9.79-9.024-17.665-12.865-5.225-2.549-12.2-5.424-15.5-6.39-5.626-1.647-19.255-1.772-218.72-2.017-212.719-.262-212.719-.262-214.141 2"/></svg>